<?xml version="1.0" standalone="no"?>
<!DOCTYPE svg PUBLIC "-//W3C//DTD SVG 20010904//EN"
 "http://www.w3.org/TR/2001/REC-SVG-20010904/DTD/svg10.dtd">
<svg version="1.0" xmlns="http://www.w3.org/2000/svg"
 width="500.000000pt" height="500.000000pt" viewBox="0 0 500.000000 500.000000"
 preserveAspectRatio="xMidYMid meet">
<metadata>
Created by potrace 1.14, written by Peter Selinger 2001-2017
</metadata>
<g transform="translate(0.000000,500.000000) scale(0.100000,-0.100000)"
fill="#000000" stroke="none">
<path d="M2497 4943 c-9 -45 -46 -86 -73 -80 -13 2 -21 0 -18 -4 16 -27 93 9
94 44 0 6 6 3 12 -8 21 -40 77 -61 92 -36 4 5 -2 7 -12 4 -26 -6 -61 26 -76
70 l-13 39 -6 -29z"/>
<path d="M2370 4912 c-30 -24 -18 -64 31 -103 31 -25 39 -37 39 -64 0 -48 -24
-68 -77 -63 -33 2 -40 1 -29 -8 12 -8 -12 -15 -103 -27 -346 -49 -697 -201
-961 -417 -84 -68 -250 -232 -250 -245 1 -5 19 -23 40 -40 21 -16 39 -35 40
-42 0 -6 -32 -71 -71 -143 -39 -72 -69 -133 -67 -136 3 -2 42 10 87 27 45 17
84 30 85 28 4 -5 -23 -391 -28 -404 -2 -5 -5 -1 -5 10 -1 12 -18 36 -39 55
-21 20 -36 42 -34 52 2 9 -6 25 -17 35 -27 23 -28 69 -1 83 25 14 26 40 1 47
-11 3 -21 13 -24 24 -7 27 -77 27 -84 0 -3 -11 -13 -21 -24 -24 -24 -6 -25
-33 -1 -46 23 -12 21 -54 -3 -80 -10 -12 -15 -29 -12 -41 3 -13 0 -20 -8 -20
-8 0 -16 -9 -20 -19 -3 -10 -15 -21 -25 -24 -14 -3 -20 -14 -20 -31 0 -20 -5
-26 -21 -26 -12 0 -23 -8 -26 -20 -3 -11 -14 -20 -24 -20 -26 0 -25 -40 1 -47
11 -3 20 -12 20 -19 0 -8 5 -14 10 -14 7 0 10 -219 10 -638 0 -666 -1 -685
-42 -696 -25 -6 -24 -46 1 -46 10 0 21 -9 24 -20 3 -12 14 -20 26 -20 14 0 21
-6 21 -18 0 -10 17 -33 38 -52 21 -20 36 -42 34 -52 -2 -9 5 -24 16 -35 23
-22 22 -69 -3 -87 -20 -15 -15 -46 9 -46 7 0 16 -9 19 -20 7 -28 77 -29 84 -1
3 11 13 21 24 24 25 7 24 33 -1 47 -27 14 -26 60 1 83 11 10 19 26 17 35 -2
10 13 32 34 52 21 19 38 43 39 55 0 11 3 15 5 10 5 -13 32 -399 28 -404 -1 -2
-40 11 -85 28 -45 17 -84 29 -87 27 -2 -3 28 -64 67 -136 39 -72 71 -137 71
-143 -1 -7 -19 -25 -40 -42 -21 -16 -39 -34 -40 -40 0 -19 206 -212 307 -287
282 -210 618 -343 966 -383 48 -5 56 -9 42 -18 -13 -10 -7 -12 28 -9 53 5 77
-15 77 -63 0 -27 -8 -39 -39 -64 -49 -39 -61 -79 -31 -103 12 -9 28 -14 37
-11 14 6 14 7 2 11 -16 5 -39 31 -39 45 0 5 20 28 45 53 36 35 45 50 45 77 0
19 -7 40 -15 47 -28 23 -15 30 60 30 41 0 75 -3 75 -7 0 -5 -7 -17 -15 -27
-28 -38 -19 -75 31 -121 38 -34 45 -46 39 -64 -4 -12 -16 -26 -27 -30 -17 -6
-18 -9 -6 -14 9 -3 26 1 38 10 30 21 19 58 -31 104 -68 63 -45 135 41 127 34
-3 38 -2 25 8 -14 11 -9 13 32 19 372 48 699 179 985 397 89 67 288 257 288
273 -1 6 -21 26 -45 45 -25 19 -45 37 -45 41 0 3 32 65 71 138 39 73 69 135
66 137 -2 2 -41 -10 -86 -27 -45 -17 -83 -30 -85 -28 -1 2 3 83 10 179 7 96
13 187 13 203 1 29 21 39 21 9 0 -10 17 -33 38 -52 21 -20 36 -42 34 -52 -2
-9 6 -25 17 -35 27 -23 28 -69 1 -83 -25 -14 -26 -40 -1 -47 11 -3 21 -13 24
-24 7 -28 77 -27 84 1 3 11 12 20 19 20 24 0 29 31 9 46 -25 18 -26 65 -3 87
11 11 18 26 16 35 -2 10 13 32 34 52 21 19 38 42 38 52 0 12 7 18 21 18 12 0
23 8 26 20 3 11 13 20 23 20 10 0 20 6 23 14 6 15 -10 36 -27 36 -34 0 -36 48
-36 692 0 419 3 638 10 638 6 0 10 6 10 13 0 7 10 17 23 22 28 13 29 39 1 43
-12 2 -24 12 -27 23 -3 11 -14 19 -26 19 -16 0 -21 6 -21 26 0 17 -6 28 -20
31 -10 3 -22 14 -25 24 -4 10 -12 19 -20 19 -8 0 -11 7 -8 20 3 12 -2 29 -12
41 -24 26 -26 68 -3 80 24 13 23 40 -1 46 -11 3 -21 13 -24 24 -7 27 -77 27
-84 0 -3 -11 -13 -21 -24 -24 -25 -7 -24 -33 1 -47 27 -14 26 -60 -1 -83 -11
-10 -19 -26 -17 -35 2 -10 -13 -32 -34 -52 -21 -19 -38 -42 -38 -52 0 -30 -20
-20 -21 10 0 15 -6 106 -13 202 -7 96 -11 177 -10 179 2 2 40 -11 85 -28 45
-17 84 -29 87 -27 2 3 -28 65 -67 137 -39 73 -71 135 -71 139 0 3 20 21 45 40
24 19 44 40 45 46 0 14 -179 187 -265 256 -278 221 -640 371 -998 413 -49 6
-56 9 -42 19 13 10 9 11 -25 8 -86 -8 -109 64 -41 127 50 46 61 83 31 104 -12
9 -29 13 -38 10 -12 -5 -11 -8 6 -14 11 -4 23 -18 27 -30 6 -18 -1 -30 -39
-64 -50 -46 -59 -83 -31 -121 8 -10 15 -21 15 -24 0 -3 -34 -5 -75 -5 -77 0
-86 4 -60 25 8 7 15 28 15 47 0 27 -9 42 -45 77 -25 25 -45 48 -45 53 0 14 23
40 39 45 12 4 12 5 -2 11 -9 3 -25 -2 -37 -11z m370 -285 c156 -14 405 -87
579 -168 113 -53 237 -128 347 -210 102 -76 286 -247 282 -261 -2 -5 -64 -60
-138 -123 l-134 -114 -61 61 c-175 177 -376 303 -611 384 -60 21 -111 41 -112
46 -2 4 -8 6 -13 2 -5 -3 -44 2 -87 10 -157 32 -257 38 -386 26 -416 -39 -747
-191 -1022 -468 l-60 -61 -125 105 c-68 58 -131 112 -139 120 -12 12 -7 21 40
70 79 80 229 204 323 267 268 178 540 277 882 321 42 5 357 0 435 -7z m-373
-383 c-3 -3 -12 -4 -19 -1 -8 3 -5 6 6 6 11 1 17 -2 13 -5z m-70 -10 c-3 -3
-12 -4 -19 -1 -8 3 -5 6 6 6 11 1 17 -2 13 -5z m236 -1 c-13 -2 -33 -2 -45 0
-13 2 -3 4 22 4 25 0 35 -2 23 -4z m-290 -10 c-7 -2 -19 -2 -25 0 -7 3 -2 5
12 5 14 0 19 -2 13 -5z m145 0 c-10 -2 -26 -2 -35 0 -10 3 -2 5 17 5 19 0 27
-2 18 -5z m285 0 c-7 -2 -21 -2 -30 0 -10 3 -4 5 12 5 17 0 24 -2 18 -5z
m-476 -9 c-3 -3 -12 -4 -19 -1 -8 3 -5 6 6 6 11 1 17 -2 13 -5z m116 -1 c-7
-2 -21 -2 -30 0 -10 3 -4 5 12 5 17 0 24 -2 18 -5z m430 0 c-7 -2 -21 -2 -30
0 -10 3 -4 5 12 5 17 0 24 -2 18 -5z m104 1 c-3 -3 -12 -4 -19 -1 -8 3 -5 6 6
6 11 1 17 -2 13 -5z m-777 -41 c-52 -19 -105 -36 -117 -36 -11 -1 -19 -6 -15
-11 3 -5 -2 -6 -12 -3 -11 5 -15 3 -10 -5 5 -8 2 -9 -10 -5 -9 4 -15 3 -12 -2
3 -5 -23 -26 -59 -46 -35 -21 -79 -51 -97 -66 -19 -17 -3 -9 37 17 38 25 101
62 138 81 78 39 252 99 312 107 22 4 2 -5 -45 -18 -203 -58 -371 -148 -500
-267 l-55 -51 56 46 c82 67 85 56 4 -20 -53 -50 -57 -55 -17 -22 100 81 187
140 272 183 91 46 216 90 277 100 26 3 20 0 -22 -13 -207 -64 -380 -175 -545
-349 -582 -615 -641 -1713 -131 -2427 112 -157 263 -299 415 -390 61 -37 70
-49 15 -20 -17 8 -33 13 -37 10 -3 -3 22 -18 56 -33 34 -14 60 -28 58 -30 -2
-2 -25 6 -51 17 -63 27 -71 18 -8 -10 73 -33 120 -49 218 -76 54 -15 72 -22
45 -19 -111 15 -327 103 -455 187 -34 23 -47 28 -30 13 17 -14 54 -39 83 -56
29 -17 50 -35 46 -40 -11 -18 262 -127 324 -130 9 0 12 -3 5 -5 -20 -9 -244
55 -334 95 -124 54 -186 100 -294 213 -111 117 -229 288 -302 438 -62 126
-106 240 -93 240 19 0 10 42 -9 47 -34 9 -53 147 -30 213 7 20 8 18 4 -11 -3
-20 -1 -47 5 -60 9 -21 9 -20 5 11 -5 32 -4 33 6 10 5 -14 8 -34 5 -45 -3 -10
-2 -31 1 -44 6 -24 7 -24 15 -6 7 16 8 15 5 -7 -2 -15 -1 -25 3 -23 4 2 17
-25 30 -61 12 -36 24 -63 26 -61 2 2 -7 37 -21 78 -29 82 -75 260 -74 281 0 7
15 -42 33 -108 32 -118 124 -369 132 -361 3 2 -5 25 -16 52 -29 67 -80 214
-80 228 1 7 16 -28 34 -78 38 -105 117 -287 122 -282 2 2 -14 43 -35 93 -73
169 -130 361 -163 544 -20 115 -17 516 5 655 21 130 58 285 92 386 14 40 23
74 21 77 -6 5 -82 -231 -92 -283 -4 -22 -9 -35 -11 -29 -4 13 28 145 52 213 8
24 13 46 11 49 -9 9 -67 -197 -91 -323 -13 -71 -26 -141 -29 -155 -3 -14 -3 2
0 36 2 33 16 114 29 179 14 65 23 120 21 122 -2 3 -14 -40 -26 -94 -12 -54
-23 -102 -24 -108 -1 -5 -3 33 -4 85 -3 118 12 186 40 193 18 5 19 11 14 41
-6 30 1 56 38 144 96 225 234 429 399 589 82 80 109 99 203 144 60 29 121 52
136 52 15 0 24 5 21 10 -3 6 -1 7 4 4 6 -4 41 4 79 17 107 38 110 29 4 -11z
m867 -8 c103 -35 229 -92 220 -101 -3 -3 -32 9 -66 25 -83 43 -150 68 -251 97
-47 13 -67 22 -45 18 22 -3 86 -21 142 -39z m30 14 c48 -17 104 -40 124 -50
20 -10 39 -15 43 -12 3 4 6 1 6 -6 0 -7 4 -9 10 -6 22 13 138 -62 228 -150
164 -157 303 -362 398 -587 37 -88 44 -114 38 -144 -5 -30 -3 -36 14 -41 29
-7 42 -72 40 -190 l-1 -98 -30 123 c-16 68 -31 121 -33 119 -3 -3 4 -40 14
-83 28 -112 45 -211 39 -226 -3 -7 -6 -2 -6 12 -2 55 -87 388 -96 378 -2 -2 7
-41 21 -88 13 -46 24 -91 24 -99 -1 -9 -16 34 -35 96 -37 119 -65 196 -71 191
-2 -2 8 -34 21 -71 98 -269 148 -693 116 -977 -24 -205 -85 -433 -170 -630
-22 -49 -37 -90 -35 -90 7 0 61 120 105 235 21 55 38 94 39 88 0 -7 -16 -54
-35 -105 -19 -51 -33 -94 -31 -96 10 -9 107 274 122 353 4 22 9 35 11 28 5
-13 -34 -163 -67 -257 -11 -33 -18 -61 -16 -63 2 -3 17 34 32 81 18 55 31 81
36 73 5 -7 6 1 2 18 -4 23 -3 27 5 15 8 -11 10 -7 6 20 -4 28 -3 31 5 15 7
-16 9 -11 5 20 -2 22 -2 31 2 20 l6 -20 8 20 c12 32 11 -79 -2 -130 -7 -28
-17 -45 -30 -48 -19 -5 -28 -47 -9 -47 13 0 -31 -114 -93 -240 -81 -167 -196
-329 -322 -456 -125 -127 -187 -166 -353 -224 -102 -36 -203 -62 -157 -41 l20
10 -20 1 c-11 1 9 12 45 25 36 12 87 32 113 44 60 26 74 27 27 1 -47 -26 -30
-25 20 0 42 21 53 33 23 24 -22 -6 -15 -2 92 68 40 25 75 51 79 56 3 6 -24
-10 -61 -35 -37 -25 -99 -61 -136 -80 -75 -37 -263 -103 -293 -102 -11 0 19
11 66 25 167 49 405 185 490 280 14 15 0 7 -30 -19 -85 -73 -82 -55 6 29 l79
75 -75 -64 c-99 -83 -176 -135 -277 -186 -98 -49 -124 -54 -37 -7 275 148 516
433 653 773 286 709 151 1558 -329 2065 -172 182 -344 290 -565 355 -71 20
-74 22 -30 17 64 -7 235 -64 317 -105 103 -51 198 -119 287 -204 60 -57 74
-67 47 -34 -21 26 -58 63 -83 84 -62 52 -45 57 19 5 l53 -42 -45 42 c-48 44
-163 130 -174 130 -4 0 -4 -5 0 -11 8 -14 9 -14 -86 35 -41 21 -102 50 -135
63 -33 13 -46 21 -30 18 17 -4 77 -28 134 -56 111 -53 115 -54 106 -39 -13 20
13 9 78 -35 85 -56 88 -51 5 8 -79 56 -209 122 -313 158 -44 15 -75 28 -68 28
6 1 51 -13 100 -30z m-700 5 c-3 -3 -12 -4 -19 -1 -8 3 -5 6 6 6 11 1 17 -2
13 -5z m346 -1 c-13 -2 -35 -2 -50 0 -16 2 -5 4 22 4 28 0 40 -2 28 -4z m80
-10 c-7 -2 -21 -2 -30 0 -10 3 -4 5 12 5 17 0 24 -2 18 -5z m-406 -9 c-3 -3
-12 -4 -19 -1 -8 3 -5 6 6 6 11 1 17 -2 13 -5z m-186 -25 c-30 -10 -56 -17
-58 -15 -5 5 77 34 97 34 8 1 -9 -8 -39 -19z m549 -4 c782 -118 1303 -1085
1105 -2050 -71 -350 -249 -685 -479 -902 -462 -438 -1090 -438 -1552 0 -230
217 -408 552 -479 902 -126 613 38 1267 420 1673 280 297 630 431 985 377z
m-716 -69 c-56 -29 -118 -65 -138 -81 -20 -15 -39 -25 -42 -22 -8 8 93 72 186
119 114 57 109 45 -6 -16z m1302 -77 c25 -17 43 -33 40 -36 -4 -4 -56 29 -90
59 -25 20 10 5 50 -23z m-1711 -101 c-130 -146 -257 -356 -337 -558 -21 -52
-38 -85 -38 -73 0 59 116 301 221 459 66 99 183 234 203 234 4 0 -18 -28 -49
-62z m1984 -13 c67 -74 181 -245 237 -357 56 -112 104 -232 104 -261 0 -12
-17 21 -38 73 -81 203 -207 412 -339 559 -31 35 -47 59 -36 53 11 -6 43 -36
72 -67z m-2388 -23 c-22 -32 -63 -112 -57 -112 2 0 16 20 30 44 28 49 57 75
36 35 -9 -19 -7 -18 14 6 14 17 23 22 20 13 -4 -13 -1 -16 14 -13 13 2 30 -8
50 -29 l29 -32 -19 -38 c-26 -52 -17 -56 11 -5 13 22 25 38 28 35 3 -2 -2 -15
-11 -28 -18 -26 -21 -42 -5 -33 6 4 1 -12 -11 -34 -24 -47 -41 -91 -36 -91 2
0 24 36 50 81 26 45 50 78 54 75 3 -4 23 11 45 31 l39 38 -48 -70 c-57 -81
-149 -258 -189 -363 -16 -39 -30 -71 -31 -69 -2 1 5 96 14 210 10 114 15 207
12 207 -4 0 -40 -11 -80 -25 -40 -14 -74 -24 -76 -22 -6 6 121 225 128 221 5
-3 0 -17 -11 -32z m2817 -94 c29 -54 50 -98 49 -98 -2 0 -37 11 -77 25 -40 14
-75 25 -77 25 -7 0 -2 -111 11 -245 8 -77 13 -141 11 -143 -1 -1 -13 23 -25
55 -37 93 -116 243 -175 334 l-56 84 44 -43 c24 -24 54 -63 66 -87 12 -25 27
-48 34 -52 6 -3 -3 19 -21 50 -37 66 -41 82 -10 41 31 -42 44 -53 25 -22 -20
32 -22 42 -6 32 8 -5 8 -1 0 14 -10 18 -6 26 31 62 47 45 54 47 87 23 18 -12
23 -13 17 -2 -4 8 1 3 11 -10 44 -60 51 -61 18 -4 -19 34 -35 67 -35 74 0 24
25 -12 78 -113z m-2968 -183 c0 -9 -9 -15 -25 -15 -16 0 -25 6 -25 15 0 9 9
15 25 15 16 0 25 -6 25 -15z m3110 -1 c0 -10 -7 -14 -22 -12 -32 5 -35 28 -4
28 17 0 26 -5 26 -16z m-3103 -41 c-20 -2 -52 -2 -70 0 -17 2 0 4 38 4 39 0
53 -2 32 -4z m3110 0 c-20 -2 -52 -2 -70 0 -17 2 0 4 38 4 39 0 53 -2 32 -4z
m-3128 -50 c10 -21 9 -28 -1 -34 -25 -16 -38 -9 -38 19 0 48 20 56 39 15z
m3119 -11 c3 -33 -9 -41 -36 -24 -10 7 -10 15 -2 36 13 35 34 29 38 -12z
m-3071 -68 c3 -8 0 -21 -6 -27 -9 -9 -11 -8 -6 6 9 22 -17 23 -35 2 -14 -17
-66 -20 -75 -5 -4 6 -4 17 -1 25 8 22 114 21 123 -1z m3108 -9 c0 -26 -55 -34
-75 -11 -15 19 -40 21 -40 4 0 -6 -3 -9 -6 -5 -4 3 -4 13 0 22 4 13 18 15 63
13 50 -3 58 -6 58 -23z m-3125 -55 c0 -6 -30 -10 -70 -10 -40 0 -70 4 -70 10
0 6 30 10 70 10 40 0 70 -4 70 -10z m50 0 c0 -5 -2 -10 -4 -10 -3 0 -8 5 -11
10 -3 6 -1 10 4 10 6 0 11 -4 11 -10z m3110 0 c0 -6 -30 -10 -70 -10 -40 0
-70 4 -70 10 0 6 30 10 70 10 40 0 70 -4 70 -10z m-3198 -37 c-6 -2 -10 -9 -6
-14 6 -10 9 -10 -73 -13 -55 -2 -63 0 -63 16 0 16 9 18 78 17 42 0 71 -3 64
-6z m128 -10 c0 -11 -3 -14 -8 -7 -4 6 -14 14 -22 17 -10 4 -8 6 8 6 15 1 22
-5 22 -16z m2880 13 c0 -2 -9 -6 -20 -9 -11 -3 -20 -1 -20 4 0 5 9 9 20 9 11
0 20 -2 20 -4z m230 -14 c0 -16 -8 -18 -62 -16 -83 3 -80 3 -73 13 3 5 -3 12
-12 14 -10 3 19 5 65 6 73 1 82 -1 82 -17z m-3060 -52 c0 -6 -68 -10 -185 -10
-117 0 -185 4 -185 10 0 6 68 10 185 10 117 0 185 -4 185 -10z m3110 0 c0 -6
-68 -10 -185 -10 -117 0 -185 4 -185 10 0 6 68 10 185 10 117 0 185 -4 185
-10z m-3070 -30 c0 -6 -82 -10 -225 -10 -143 0 -225 4 -225 10 0 6 82 10 225
10 143 0 225 -4 225 -10z m3110 0 c0 -6 -82 -10 -225 -10 -143 0 -225 4 -225
10 0 6 82 10 225 10 143 0 225 -4 225 -10z m-3150 -40 c0 -6 -68 -10 -185 -10
-117 0 -185 4 -185 10 0 6 68 10 185 10 117 0 185 -4 185 -10z m3110 0 c0 -6
-68 -10 -185 -10 -117 0 -185 4 -185 10 0 6 68 10 185 10 117 0 185 -4 185
-10z m-3453 -987 c-1 -180 -2 -35 -2 322 0 358 1 505 2 328 2 -177 2 -469 0
-650z m3403 907 c0 -64 -1 -66 -31 -50 -18 10 -19 7 -19 -48 0 -53 2 -60 25
-70 22 -10 25 -18 25 -67 0 -52 -1 -55 -19 -45 -30 15 -31 14 -31 -45 0 -49 3
-57 25 -67 23 -10 25 -17 25 -75 0 -67 -1 -69 -31 -53 -18 10 -19 7 -19 -50 0
-55 2 -61 25 -72 22 -10 25 -17 25 -64 0 -53 0 -53 -25 -44 -25 9 -25 9 -25
-49 0 -52 3 -59 25 -69 23 -11 25 -17 25 -77 0 -65 0 -65 -25 -59 -24 6 -25 5
-25 -50 0 -50 3 -58 25 -68 22 -10 25 -18 25 -60 0 -32 -4 -48 -12 -48 -7 0
-68 23 -135 52 l-123 53 0 57 c0 32 2 58 5 58 3 0 32 -14 65 -30 l60 -30 0 58
0 58 -57 24 c-32 12 -62 26 -66 30 -4 4 -7 39 -5 77 l3 71 83 -39 83 -38 -3
57 -3 57 -82 35 -83 35 0 58 c0 31 3 57 6 57 3 0 39 -16 81 -35 42 -19 78 -35
80 -35 2 0 3 25 1 56 l-3 55 -82 36 -83 35 0 69 c0 38 2 69 5 69 3 0 41 -18
85 -40 l80 -40 0 58 0 58 -82 35 -83 35 -3 62 -3 63 80 -41 c44 -22 83 -40 86
-40 3 0 5 25 3 57 l-3 56 -70 30 c-38 16 -74 33 -79 38 -6 5 43 9 122 9 l132
0 0 -60z m27 -907 c-1 -180 -2 -35 -2 322 0 358 1 505 2 328 2 -177 2 -469 0
-650z m-3158 953 c-2 -2 -39 -19 -81 -36 l-78 -33 0 -58 0 -59 80 40 c44 22
84 40 90 40 7 0 10 -21 8 -57 l-3 -57 -85 -37 -85 -36 -3 -57 c-2 -31 0 -56 3
-56 3 0 41 18 85 40 44 22 82 40 85 40 3 0 5 -31 5 -69 l0 -69 -90 -38 -90
-38 0 -57 0 -58 84 40 c46 21 87 39 90 39 3 0 6 -26 6 -58 l0 -57 -60 -24 -60
-24 0 -54 c0 -29 2 -53 5 -53 2 0 29 11 60 25 l56 24 -3 -75 -3 -76 -55 -23
c-38 -16 -57 -30 -61 -47 -5 -17 -7 -19 -8 -4 -1 12 -6 16 -17 12 -9 -3 -19
-6 -24 -6 -5 0 -10 -17 -12 -37 -2 -27 -8 -39 -20 -41 -14 -3 -18 3 -18 23 0
24 -3 26 -25 21 -25 -6 -25 -6 -25 61 0 61 2 69 23 78 18 8 22 19 25 68 3 60
2 63 -29 47 -18 -10 -19 -7 -19 43 0 48 3 55 25 65 22 10 25 18 25 68 0 55 -1
56 -25 50 -25 -6 -25 -6 -25 57 0 58 2 65 25 75 22 10 25 18 25 67 0 59 -1 60
-31 45 -18 -10 -19 -7 -19 45 0 49 3 57 25 67 22 10 25 17 25 66 0 53 -1 54
-25 48 -24 -6 -25 -5 -25 49 l0 55 127 0 c69 0 124 -2 122 -4z m51 -636 c0
-420 -3 -640 -10 -640 -7 0 -10 220 -10 640 0 420 3 640 10 640 7 0 10 -220
10 -640z m2800 0 c0 -420 -3 -640 -10 -640 -7 0 -10 220 -10 640 0 420 3 640
10 640 7 0 10 -220 10 -640z m-92 445 c0 -16 -2 -15 -8 5 -4 14 -8 34 -8 45 0
16 2 15 8 -5 4 -14 8 -34 8 -45z m-2631 -7 c-3 -7 -5 -2 -5 12 0 14 2 19 5 13
2 -7 2 -19 0 -25z m-10 -55 c-3 -10 -5 -4 -5 12 0 17 2 24 5 18 2 -7 2 -21 0
-30z m2650 0 c-3 -10 -5 -4 -5 12 0 17 2 24 5 18 2 -7 2 -21 0 -30z m-2660
-60 c-3 -10 -5 -4 -5 12 0 17 2 24 5 18 2 -7 2 -21 0 -30z m2670 0 c-3 -10 -5
-4 -5 12 0 17 2 24 5 18 2 -7 2 -21 0 -30z m30 -65 c-2 -13 -4 -5 -4 17 -1 22
1 32 4 23 2 -10 2 -28 0 -40z m-2710 -5 c-3 -10 -5 -4 -5 12 0 17 2 24 5 18 2
-7 2 -21 0 -30z m2690 -10 c-3 -10 -5 -4 -5 12 0 17 2 24 5 18 2 -7 2 -21 0
-30z m-2700 -95 c-3 -7 -5 -2 -5 12 0 14 2 19 5 13 2 -7 2 -19 0 -25z m2710
-5 c-3 -10 -5 -4 -5 12 0 17 2 24 5 18 2 -7 2 -21 0 -30z m-2720 -460 c-3 -10
-5 -4 -5 12 0 17 2 24 5 18 2 -7 2 -21 0 -30z m2730 0 c-3 -10 -5 -4 -5 12 0
17 2 24 5 18 2 -7 2 -21 0 -30z m-2720 -60 c-3 -10 -5 -4 -5 12 0 17 2 24 5
18 2 -7 2 -21 0 -30z m2710 5 c-3 -7 -5 -2 -5 12 0 14 2 19 5 13 2 -7 2 -19 0
-25z m-2680 -40 c-3 -8 -6 -5 -6 6 -1 11 2 17 5 13 3 -3 4 -12 1 -19z m2650 0
c-3 -8 -6 -5 -6 6 -1 11 2 17 5 13 3 -3 4 -12 1 -19z m20 -10 c-3 -7 -5 -2 -5
12 0 14 2 19 5 13 2 -7 2 -19 0 -25z m-2710 -10 c-3 -8 -6 -5 -6 6 -1 11 2 17
5 13 3 -3 4 -12 1 -19z m2730 0 c-3 -8 -6 -5 -6 6 -1 11 2 17 5 13 3 -3 4 -12
1 -19z m-2787 -46 l0 -57 -122 -53 c-68 -29 -129 -52 -135 -52 -9 0 -13 17
-13 49 0 45 2 50 30 61 17 7 30 19 30 27 0 10 7 14 18 11 10 -3 54 12 97 33
44 20 83 38 88 38 4 1 7 -25 7 -57z m2737 26 c-3 -8 -6 -5 -6 6 -1 11 2 17 5
13 3 -3 4 -12 1 -19z m-2630 -10 c-3 -8 -6 -5 -6 6 -1 11 2 17 5 13 3 -3 4
-12 1 -19z m2670 -10 c-3 -8 -6 -5 -6 6 -1 11 2 17 5 13 3 -3 4 -12 1 -19z
m-2660 -30 c-3 -8 -6 -5 -6 6 -1 11 2 17 5 13 3 -3 4 -12 1 -19z m2607 -12
c-3 -15 -8 -25 -11 -23 -2 3 -1 17 3 31 3 15 8 25 11 23 2 -3 1 -17 -3 -31z
m-2585 -56 c0 -9 -4 -8 -9 5 -5 11 -9 27 -9 35 0 9 4 8 9 -5 5 -11 9 -27 9
-35z m2565 -14 c-3 -15 -8 -25 -11 -23 -2 3 -1 17 3 31 3 15 8 25 11 23 2 -3
1 -17 -3 -31z m-2607 -8 c-3 -8 -6 -5 -6 6 -1 11 2 17 5 13 3 -3 4 -12 1 -19z
m-47 -78 c0 -6 -68 -10 -185 -10 -117 0 -185 4 -185 10 0 6 68 10 185 10 117
0 185 -4 185 -10z m3110 0 c0 -6 -68 -10 -185 -10 -117 0 -185 4 -185 10 0 6
68 10 185 10 117 0 185 -4 185 -10z m-3177 -37 c-62 -2 -165 -2 -230 0 -65 1
-14 3 112 3 127 0 180 -2 118 -3z m3110 0 c-62 -2 -165 -2 -230 0 -65 1 -14 3
112 3 127 0 180 -2 118 -3z m-3048 -33 c4 -7 -58 -10 -179 -10 -117 0 -186 4
-186 10 0 6 66 10 179 10 109 0 182 -4 186 -10z m3115 0 c0 -6 -69 -10 -186
-10 -121 0 -183 3 -179 10 4 6 77 10 186 10 113 0 179 -4 179 -10z m-2956
-296 c65 -123 142 -235 226 -333 40 -45 63 -78 52 -72 -57 30 -204 229 -290
391 -62 117 -122 261 -122 292 1 13 20 -25 44 -83 23 -58 64 -145 90 -195z
m2531 169 c-75 -183 -197 -384 -305 -506 -29 -31 -61 -62 -72 -68 -11 -6 12
26 50 70 39 45 98 123 132 174 64 95 174 312 206 406 13 37 20 48 22 34 2 -12
-13 -61 -33 -110z m-2868 84 c13 -14 -9 -21 -72 -25 -59 -4 -65 -3 -65 15 0
17 7 19 65 18 36 -1 68 -5 72 -8z m130 -12 c-4 -8 -12 -15 -19 -14 -10 0 -10
2 0 6 6 2 12 12 12 21 0 8 3 13 6 9 4 -3 4 -13 1 -22z m3113 2 c0 -18 -6 -19
-65 -15 -35 2 -67 7 -71 10 -15 16 10 24 70 24 59 0 66 -2 66 -19z m-3016 -90
c20 -49 34 -92 31 -98 -4 -5 -2 -9 4 -9 5 0 30 -39 56 -86 26 -47 67 -115 92
-152 l45 -67 -41 40 c-23 22 -45 38 -48 35 -3 -3 -30 38 -60 90 -61 109 -68
111 -19 4 19 -41 31 -72 25 -69 -14 9 -11 -8 7 -33 9 -13 14 -26 11 -28 -3 -3
-15 13 -28 35 -26 48 -38 48 -14 0 15 -28 15 -31 1 -26 -13 5 -14 3 -4 -13 10
-16 9 -23 -11 -44 -14 -15 -31 -23 -43 -21 -15 3 -18 0 -14 -13 3 -9 -6 -3
-20 13 -21 24 -23 25 -14 6 21 -40 -8 -14 -36 35 -14 24 -28 44 -30 44 -6 0
35 -80 57 -112 11 -15 16 -29 11 -32 -7 -4 -133 214 -127 221 1 2 35 -8 75
-22 40 -14 76 -25 80 -25 5 0 -7 175 -25 360 -3 35 -4 62 -2 60 3 -3 21 -45
41 -93z m2771 75 c-3 -3 -11 0 -18 7 -9 10 -8 11 6 5 10 -3 15 -9 12 -12z
m-102 -172 c-13 -142 -17 -220 -9 -227 1 -2 36 8 76 22 40 14 75 25 77 25 6 0
-24 -53 -42 -75 -14 -17 -16 -17 -11 -2 9 27 -8 20 -22 -10 -7 -16 -22 -39
-33 -53 -11 -14 -17 -19 -13 -11 5 11 1 10 -17 -2 -33 -24 -40 -22 -87 23 -37
36 -41 44 -31 62 8 15 8 19 0 14 -6 -4 -11 -3 -11 3 0 5 5 13 10 16 6 3 10 11
10 16 0 6 -4 7 -10 4 -14 -9 -12 1 5 35 26 50 8 33 -24 -22 -16 -29 -49 -71
-71 -93 l-42 -40 50 75 c62 93 130 220 173 323 17 42 33 76 34 75 2 -2 -4 -73
-12 -158z m-2863 140 c0 -6 -28 -10 -65 -10 -37 0 -65 4 -65 10 0 6 28 10 65
10 37 0 65 -4 65 -10z m60 0 c0 -5 -5 -10 -11 -10 -5 0 -7 5 -4 10 3 6 8 10
11 10 2 0 4 -4 4 -10z m2935 0 c3 -5 1 -10 -4 -10 -6 0 -11 5 -11 10 0 6 2 10
4 10 3 0 8 -4 11 -10z m175 0 c0 -6 -28 -10 -65 -10 -37 0 -65 4 -65 10 0 6
28 10 65 10 37 0 65 -4 65 -10z m-3191 -49 c17 -23 45 -16 36 8 -5 12 -3 13 6
4 25 -25 2 -43 -55 -43 -56 0 -72 9 -62 35 8 22 59 19 75 -4z m3045 8 c-13
-22 19 -28 37 -8 23 27 74 23 74 -6 0 -17 -8 -20 -54 -23 -30 -2 -58 1 -64 7
-9 9 -3 41 8 41 4 0 3 -5 -1 -11z m-3034 -69 c-1 -26 -15 -50 -31 -50 -14 0
-19 7 -19 30 0 26 3 29 25 28 14 -1 25 -5 25 -8z m3110 -20 c0 -23 -5 -30 -19
-30 -22 0 -36 40 -18 52 24 15 37 8 37 -22z m-3110 -59 c44 -8 44 -9 -22 -10
-40 0 -68 3 -68 9 0 12 27 12 90 1z m3150 -1 c0 -6 -28 -9 -67 -8 -65 1 -66 1
-23 8 70 11 90 11 90 0z m-3150 -39 c0 -6 -5 -13 -12 -17 -7 -5 -8 -3 -3 6 5
9 2 10 -14 5 -12 -4 -21 -2 -21 4 0 6 11 11 25 11 14 0 25 -4 25 -9z m3110 0
c0 -6 -4 -13 -10 -16 -5 -3 -10 -1 -10 4 0 6 -5 11 -11 11 -5 0 -7 -5 -3 -12
4 -7 3 -8 -4 -4 -20 12 -13 26 13 26 14 0 25 -4 25 -9z m-374 -143 c-18 -26
-22 -17 -5 14 6 11 13 17 16 15 3 -3 -2 -16 -11 -29z m-2147 -253 c492 -374
1175 -417 1716 -108 120 68 212 138 320 245 l81 78 137 -116 c75 -64 137 -119
137 -124 0 -11 -155 -157 -235 -221 -137 -110 -398 -266 -427 -256 -7 2 -18
-2 -23 -10 -15 -20 -245 -98 -365 -124 -57 -12 -132 -22 -167 -23 -35 0 -63
-4 -63 -8 0 -13 -310 -8 -421 7 -284 37 -582 149 -815 304 -80 54 -90 64 -101
103 -11 43 -11 43 -12 10 l-1 -34 -52 44 c-72 59 -218 199 -218 208 0 5 44 45
98 90 53 45 115 97 136 116 l39 35 86 -84 c47 -46 115 -105 150 -132z m2344
144 c-25 -45 -42 -61 -44 -44 -1 12 62 107 68 102 3 -4 -8 -29 -24 -58z m-643
-124 c0 -16 -250 -156 -277 -155 -4 0 39 25 96 55 58 30 118 66 135 80 30 23
46 30 46 20z m-1314 -161 c33 -15 88 -37 124 -50 36 -12 60 -23 53 -23 -17 -1
-160 52 -208 77 -56 29 -39 27 31 -4z m174 -21 c30 -11 31 -12 6 -8 -16 4 -43
13 -60 20 -23 11 -25 13 -6 8 14 -3 41 -12 60 -20z m825 12 c-16 -8 -37 -14
-45 -14 -8 0 1 7 20 14 46 18 64 17 25 0z m-758 -31 c-3 -3 -12 -4 -19 -1 -8
3 -5 6 6 6 11 1 17 -2 13 -5z m660 0 c-3 -3 -12 -4 -19 -1 -8 3 -5 6 6 6 11 1
17 -2 13 -5z m-620 -10 c-3 -3 -12 -4 -19 -1 -8 3 -5 6 6 6 11 1 17 -2 13 -5z
m580 0 c-3 -3 -12 -4 -19 -1 -8 3 -5 6 6 6 11 1 17 -2 13 -5z m-530 -10 c-3
-3 -12 -4 -19 -1 -8 3 -5 6 6 6 11 1 17 -2 13 -5z m496 -21 c-7 -2 -19 -2 -25
0 -7 3 -2 5 12 5 14 0 19 -2 13 -5z m-450 -10 c-7 -2 -21 -2 -30 0 -10 3 -4 5
12 5 17 0 24 -2 18 -5z m400 0 c-7 -2 -19 -2 -25 0 -7 3 -2 5 12 5 14 0 19 -2
13 -5z m-476 -9 c-3 -3 -12 -4 -19 -1 -8 3 -5 6 6 6 11 1 17 -2 13 -5z m161
-1 c-10 -2 -28 -2 -40 0 -13 2 -5 4 17 4 22 1 32 -1 23 -4z m245 0 c-7 -2 -21
-2 -30 0 -10 3 -4 5 12 5 17 0 24 -2 18 -5z m134 1 c-3 -3 -12 -4 -19 -1 -8 3
-5 6 6 6 11 1 17 -2 13 -5z m80 0 c-3 -3 -12 -4 -19 -1 -8 3 -5 6 6 6 11 1 17
-2 13 -5z m-40 -10 c-3 -3 -12 -4 -19 -1 -8 3 -5 6 6 6 11 1 17 -2 13 -5z
m-574 -11 c-7 -2 -19 -2 -25 0 -7 3 -2 5 12 5 14 0 19 -2 13 -5z m530 0 c-7
-2 -19 -2 -25 0 -7 3 -2 5 12 5 14 0 19 -2 13 -5z m-470 -10 c-7 -2 -19 -2
-25 0 -7 3 -2 5 12 5 14 0 19 -2 13 -5z m414 1 c-3 -3 -12 -4 -19 -1 -8 3 -5
6 6 6 11 1 17 -2 13 -5z m-334 -11 c-7 -2 -21 -2 -30 0 -10 3 -4 5 12 5 17 0
24 -2 18 -5z"/>
<path d="M1860 4520 c-8 -5 -10 -10 -5 -10 6 0 17 5 25 10 8 5 11 10 5 10 -5
0 -17 -5 -25 -10z"/>
<path d="M1810 4500 c-8 -5 -10 -10 -5 -10 6 0 17 5 25 10 8 5 11 10 5 10 -5
0 -17 -5 -25 -10z"/>
<path d="M1675 4441 c-55 -27 -109 -57 -120 -66 -11 -9 5 -3 36 14 31 17 90
47 130 65 41 19 69 35 64 35 -6 1 -55 -21 -110 -48z"/>
<path d="M3420 4376 c0 -3 9 -10 20 -16 11 -6 20 -8 20 -6 0 3 -9 10 -20 16
-11 6 -20 8 -20 6z"/>
<path d="M3470 4346 c0 -3 9 -10 20 -16 11 -6 20 -8 20 -6 0 3 -9 10 -20 16
-11 6 -20 8 -20 6z"/>
<path d="M2208 4293 c7 -3 16 -2 19 1 4 3 -2 6 -13 5 -11 0 -14 -3 -6 -6z"/>
<path d="M2168 4283 c7 -3 16 -2 19 1 4 3 -2 6 -13 5 -11 0 -14 -3 -6 -6z"/>
<path d="M2128 4273 c7 -3 16 -2 19 1 4 3 -2 6 -13 5 -11 0 -14 -3 -6 -6z"/>
<path d="M2027 4248 c-32 -11 -57 -22 -54 -24 2 -2 35 7 73 20 38 14 62 24 54
24 -8 0 -41 -9 -73 -20z"/>
<path d="M1920 4205 c-14 -8 -20 -14 -15 -14 6 0 21 6 35 14 14 8 21 14 15 14
-5 0 -21 -6 -35 -14z"/>
<path d="M3081 4207 c19 -16 179 -96 174 -87 -6 10 -158 90 -171 90 -4 0 -5
-1 -3 -3z"/>
<path d="M3809 4097 c14 -15 21 -27 17 -27 -5 0 -1 -11 8 -24 10 -16 12 -27 6
-31 -6 -4 -7 -13 -1 -23 6 -12 4 -23 -7 -37 -23 -28 -112 -99 -112 -90 0 4 -6
2 -14 -4 -10 -9 -16 -9 -21 -1 -4 6 -15 10 -25 8 -10 -2 -27 5 -38 15 -11 10
-26 19 -34 21 -7 1 -29 12 -48 25 -19 13 2 -13 47 -58 45 -44 86 -81 91 -81 5
0 19 12 33 26 13 14 65 60 116 101 l92 75 -31 39 c-18 22 -48 51 -67 66 l-36
26 24 -26z"/>
<path d="M1137 4052 c-31 -32 -57 -62 -57 -67 1 -6 34 -36 75 -68 41 -32 75
-63 75 -68 0 -5 5 -9 12 -9 7 0 27 -14 45 -32 l33 -32 78 78 c42 43 65 70 50
61 -16 -10 -28 -14 -28 -10 0 4 -19 -8 -42 -27 -23 -18 -38 -26 -33 -18 8 12
5 12 -15 -1 -23 -16 -27 -15 -62 2 -27 14 -38 26 -38 42 0 18 -2 19 -10 7 -8
-13 -14 -11 -37 12 -27 27 -39 77 -26 108 3 8 7 21 9 27 1 7 9 20 18 29 15 14
20 24 13 24 -1 0 -28 -26 -60 -58z"/>
<path d="M1212 3950 c0 -14 2 -19 5 -12 2 6 2 18 0 25 -3 6 -5 1 -5 -13z"/>
<path d="M1250 1715 c0 -5 5 -17 10 -25 5 -8 10 -10 10 -5 0 6 -5 17 -10 25
-5 8 -10 11 -10 5z"/>
<path d="M1650 1157 c64 -66 74 -92 16 -39 -25 22 -27 23 -11 3 25 -31 167
-137 216 -162 59 -30 60 -22 1 12 -29 17 -51 33 -49 36 3 2 21 -6 41 -18 20
-12 39 -19 42 -16 3 2 -20 18 -50 35 -59 34 -142 98 -221 171 -36 33 -31 27
15 -22z m120 -104 c27 -20 48 -39 45 -41 -4 -5 -91 54 -100 68 -11 18 5 10 55
-27z"/>
<path d="M3736 1705 c-9 -26 -7 -32 5 -12 6 10 9 21 6 23 -2 3 -7 -2 -11 -11z"/>
<path d="M3686 1645 c-9 -26 -7 -32 5 -12 6 10 9 21 6 23 -2 3 -7 -2 -11 -11z"/>
<path d="M2965 844 c-33 -14 -46 -22 -30 -18 31 6 118 43 100 42 -5 0 -37 -11
-70 -24z"/>
<path d="M2387 4119 c-327 -34 -635 -235 -856 -559 -469 -683 -399 -1728 152
-2307 117 -123 222 -201 361 -268 172 -84 245 -100 456 -100 211 0 284 16 456
100 139 67 244 145 361 268 293 308 463 763 463 1245 0 760 -413 1418 -997
1587 -72 21 -255 47 -302 44 -9 -1 -51 -5 -94 -10z m74 -80 c46 -16 62 -32 24
-25 l-30 6 32 -12 c40 -16 52 -28 21 -22 l-23 5 25 -16 25 -16 -30 6 c-25 5
-28 4 -17 -7 9 -9 50 -13 145 -14 135 -1 186 -10 247 -44 48 -26 37 -25 -35 5
-35 14 -79 24 -105 24 -41 -1 -38 -2 27 -14 41 -7 89 -24 115 -40 23 -15 35
-24 25 -21 -60 19 -70 16 -27 -9 25 -15 35 -24 23 -21 -37 7 -27 -2 27 -25 28
-12 49 -24 46 -26 -4 -4 -102 21 -148 39 -32 12 -37 27 -10 29 36 2 -76 30
-153 39 l-80 8 102 -1 c101 -2 117 7 36 19 -24 3 -41 10 -38 14 3 5 -12 7 -32
4 -71 -7 -162 -5 -180 5 -10 5 -36 13 -58 17 l-40 7 30 7 c29 7 29 8 -10 10
-37 3 -38 3 -8 7 38 5 54 33 18 33 -13 0 -27 5 -30 10 -3 6 -21 10 -38 11 -27
0 -29 2 -12 9 29 12 97 12 136 -1z m-128 -26 c-13 -2 -35 -2 -50 0 -16 2 -5 4
22 4 28 0 40 -2 28 -4z m-225 -77 c-10 -7 -18 -19 -18 -26 0 -7 7 -10 18 -6
14 5 14 4 -2 -9 -11 -8 -25 -15 -32 -15 -6 0 -17 -7 -25 -16 -11 -14 -13 -14
-22 1 -8 15 -11 15 -30 -2 -11 -10 -17 -12 -13 -5 4 6 5 12 2 12 -3 0 -10 -10
-17 -21 -9 -17 -8 -20 3 -13 11 6 11 5 0 -9 -8 -9 -24 -47 -38 -84 -19 -55
-24 -62 -24 -36 0 17 9 52 20 77 24 58 16 61 -10 4 -11 -24 -20 -65 -21 -93
l-1 -50 -14 32 c-10 23 -11 39 -3 61 5 16 9 33 7 38 -5 21 15 52 56 87 50 42
58 45 49 20 -6 -16 -4 -16 15 1 20 17 27 15 23 -6 -2 -13 6 -9 20 9 10 11 10
14 2 9 -7 -4 -13 -3 -13 3 0 6 17 19 38 30 43 23 54 26 30 7z m177 -26 c-57
-12 -97 -29 -91 -38 3 -5 -9 -22 -27 -38 l-32 -29 30 35 30 35 -32 -29 c-18
-16 -30 -32 -28 -36 2 -4 -9 -33 -26 -66 -16 -32 -27 -48 -23 -34 3 14 7 36 8
50 1 14 7 35 14 46 6 12 9 24 6 27 -8 8 59 56 102 71 21 8 55 14 74 14 l35 0
-40 -8z m155 -19 c0 -7 -89 -23 -133 -22 -9 0 -15 -4 -12 -9 3 -6 -1 -7 -9 -4
-22 8 -59 -16 -105 -69 -48 -57 -53 -53 -11 8 35 51 93 82 176 94 82 12 94 12
94 2z m-317 -18 c-3 -10 -10 -24 -16 -30 -5 -7 -7 -13 -3 -13 3 0 -9 -22 -28
-49 -19 -27 -32 -52 -28 -57 4 -4 2 -4 -5 -1 -6 4 -14 1 -17 -5 -3 -7 -3 -2 0
11 5 17 3 21 -6 16 -17 -10 -5 12 23 43 16 17 17 22 6 22 -8 0 -23 -14 -33
-31 -10 -17 -20 -28 -23 -26 -7 8 33 80 57 102 l23 20 -13 -25 c-12 -23 -10
-22 24 8 42 37 48 39 39 15z m412 -23 c-58 -5 -94 -14 -130 -34 -27 -15 -41
-24 -30 -21 11 4 34 9 50 12 28 6 29 5 15 -12 -14 -17 -12 -18 45 -11 56 7 59
6 40 -8 -19 -15 -19 -16 8 -6 16 5 56 9 90 9 l62 -1 -63 -13 c-34 -7 -66 -16
-70 -20 -4 -4 7 -5 23 -2 101 20 188 29 219 23 54 -10 50 -21 -7 -19 l-52 1
45 -7 45 -8 -45 -2 c-59 -2 -34 -20 30 -22 25 0 54 -4 65 -9 l20 -9 -20 0
c-11 -1 -27 -6 -35 -12 -11 -8 -5 -9 23 -4 60 10 177 -35 177 -67 0 -5 -12 -1
-27 10 -29 20 -94 42 -126 42 -29 0 0 -24 48 -40 l40 -14 -40 -7 c-22 -4 -69
-5 -105 -1 l-65 6 45 12 45 12 -90 2 -90 2 60 13 60 12 -54 2 c-49 1 -52 3
-40 18 13 15 10 16 -30 9 -27 -4 -47 -3 -51 3 -4 7 -23 5 -55 -5 -28 -8 -57
-13 -65 -11 -8 1 17 11 55 22 71 19 115 45 78 45 -10 0 -43 -6 -73 -14 -30 -8
-58 -12 -63 -9 -10 6 1 23 16 23 7 0 6 -4 -3 -10 -8 -5 -10 -10 -5 -10 6 0 16
4 23 9 11 7 11 9 -2 14 -9 4 -38 -7 -66 -23 -28 -17 -59 -30 -68 -30 -12 1 -8
5 11 16 26 14 39 31 15 19 -7 -3 -3 2 10 11 12 9 22 20 22 25 0 17 -29 9 -94
-25 -36 -19 -66 -33 -66 -31 0 2 21 20 46 40 26 19 44 35 40 35 -17 0 -74 -35
-103 -62 -22 -22 -31 -26 -29 -14 3 24 88 102 138 129 35 18 60 23 138 24 l95
1 -80 -8z m-243 -28 c-21 -18 -23 -21 -5 -13 43 22 37 10 -12 -20 -27 -17 -56
-38 -63 -48 -7 -9 -18 -16 -24 -16 -6 0 -13 -6 -16 -14 -3 -8 0 -11 7 -7 7 5
8 1 4 -10 -4 -11 -8 -13 -11 -6 -2 7 -9 9 -15 5 -7 -4 -4 4 5 17 9 14 22 24
30 22 7 -1 5 4 -5 12 -17 13 -16 17 25 60 36 37 50 45 76 43 l31 -2 -27 -23z
m589 -44 c22 -6 39 -15 39 -20 0 -5 4 -6 10 -3 5 3 26 -3 47 -14 21 -11 64
-32 95 -46 77 -35 145 -100 153 -145 l6 -35 -19 41 c-19 39 -95 114 -116 114
-6 0 -3 -5 7 -11 9 -6 15 -14 12 -19 -3 -5 0 -12 6 -16 8 -4 9 -3 5 4 -13 21
0 13 25 -15 22 -25 22 -26 2 -9 -24 20 -32 10 -10 -13 6 -7 -9 2 -34 20 -25
19 -41 37 -36 40 5 4 -3 14 -19 23 -27 16 -28 16 -4 11 14 -3 7 4 -17 15 -24
12 -69 25 -100 31 -66 12 -101 28 -68 29 12 1 4 7 -20 15 -50 16 -17 19 36 3z
m-800 -35 c-12 -20 -14 -14 -5 12 4 9 9 14 11 11 3 -2 0 -13 -6 -23z m62 -78
c-3 -9 -8 -14 -10 -11 -3 3 -2 9 2 15 9 16 15 13 8 -4z m422 -31 c-27 -13 -61
-23 -75 -23 -16 0 -2 9 40 24 84 30 98 30 35 -1z m565 -59 c21 -22 22 -25 5
-19 -18 7 -19 6 -5 -11 14 -17 14 -17 -5 -8 -11 6 -29 22 -40 35 l-20 23 21
-17 c39 -34 39 -17 -1 18 -36 32 -37 34 -10 21 17 -8 41 -27 55 -42z m-973 -2
c-6 15 -3 16 13 7 24 -13 53 -13 45 0 -4 6 25 8 77 6 l83 -4 0 -40 c0 -48 12
-42 17 8 l3 35 67 0 c37 0 64 -4 60 -9 -3 -5 2 -6 12 -3 9 4 30 -2 49 -13 17
-11 47 -20 65 -20 18 0 31 -4 28 -9 -4 -5 2 -7 12 -4 11 2 32 -6 50 -22 17
-15 48 -28 68 -31 20 -2 44 -9 53 -14 9 -4 46 -12 81 -15 36 -4 76 -14 89 -22
13 -8 20 -10 17 -4 -12 18 0 12 20 -11 10 -12 13 -18 5 -13 -10 6 -12 4 -7 -4
5 -7 10 -10 13 -7 4 3 23 -9 44 -27 21 -17 52 -42 68 -55 17 -13 40 -37 52
-55 l23 -32 -29 25 -29 25 17 -25 c9 -14 25 -36 35 -50 27 -38 20 -106 -21
-196 -19 -44 -38 -90 -42 -104 -4 -13 -32 -73 -62 -132 -29 -60 -55 -121 -57
-136 -2 -15 -7 -44 -11 -65 -7 -34 -9 -36 -20 -20 -42 62 -59 218 -27 255 8 9
19 51 25 92 11 74 10 76 -14 103 -14 16 -35 42 -47 59 -15 21 -32 33 -56 37
-43 7 -117 -3 -110 -14 3 -5 1 -9 -4 -9 -17 0 -72 -58 -72 -75 0 -14 4 -12 20
8 34 43 163 82 196 59 15 -10 72 -95 75 -112 4 -22 -11 -91 -19 -86 -4 2 -18
-12 -30 -32 l-23 -37 25 28 c28 30 33 26 13 -9 -19 -34 -193 -214 -206 -214
-7 0 -26 14 -43 30 -27 27 -30 36 -25 70 3 23 1 38 -4 34 -5 -3 -9 -15 -9 -27
0 -30 -15 -10 -33 45 -10 30 -14 69 -12 105 3 42 2 50 -4 28 -7 -26 -9 -28
-16 -11 -15 36 12 105 63 157 26 26 57 51 69 56 15 5 19 13 14 21 -4 7 -15 10
-24 6 -9 -3 -15 -10 -12 -14 8 -12 -11 -21 -29 -14 -9 3 -13 11 -9 17 3 6 1 7
-6 3 -6 -4 -9 -11 -6 -15 2 -5 -23 -33 -57 -62 -34 -30 -59 -46 -55 -36 9 23
-29 143 -54 168 -10 10 -19 26 -19 34 0 8 -6 15 -14 15 -7 0 -19 7 -26 15 -7
8 -17 15 -23 15 -6 0 4 -11 23 -25 19 -14 30 -25 26 -25 -4 0 6 -16 23 -35 17
-20 31 -41 32 -48 2 -35 9 -68 17 -83 10 -18 -8 -81 -39 -131 -11 -17 -25 -59
-30 -92 -12 -66 -28 -73 -30 -13 l-1 37 -16 -36 c-18 -40 -56 -74 -46 -41 4
12 0 10 -15 -7 -19 -21 -21 -21 -21 -5 0 11 -8 2 -19 -21 -12 -24 -20 -33 -20
-22 -1 17 -2 17 -17 3 -8 -9 -20 -14 -25 -11 -5 4 -9 2 -9 -3 0 -5 -19 -24
-42 -42 l-41 -33 6 29 7 29 -27 -33 c-19 -24 -27 -46 -28 -75 -1 -22 -7 -43
-14 -45 -8 -3 -10 4 -5 22 11 46 9 59 -8 61 -17 3 -23 -11 -18 -45 2 -12 -3
-11 -19 4 -11 10 -18 24 -14 30 3 6 3 8 -2 4 -9 -8 -65 18 -65 31 0 5 -18 21
-41 35 -22 15 -38 30 -35 33 3 4 1 12 -5 19 -7 8 -7 19 -1 31 6 10 8 32 5 48
l-6 30 22 -25 22 -25 -12 25 c-16 35 -50 70 -67 70 -13 0 -13 -3 1 -18 9 -10
20 -33 23 -50 9 -44 -17 -72 -65 -71 -56 0 -114 13 -112 24 0 6 -3 10 -9 10
-5 0 -17 10 -25 23 -9 12 -23 22 -31 22 -24 0 -16 40 16 80 25 32 67 114 70
138 1 4 11 23 23 42 17 27 22 51 22 100 0 36 4 76 8 90 4 15 -1 9 -13 -12 -22
-41 -31 -46 -50 -23 -9 11 -9 27 0 69 6 31 16 59 22 62 6 4 8 -2 4 -17 -4 -13
3 -6 15 15 12 22 25 70 30 107 9 70 38 147 49 129 4 -6 47 -12 98 -13 49 -1
88 1 86 5 -8 13 11 9 24 -4 9 -9 12 -9 12 1 0 11 3 11 15 1 9 -7 18 -10 22 -6
3 3 2 6 -4 6 -6 0 -13 10 -16 21 -6 21 -5 21 20 -2 21 -19 25 -20 20 -6z m763
-8 c34 -13 34 -13 -25 -9 -33 2 -82 8 -110 13 -50 9 -50 9 25 9 41 0 91 -6
110 -13z m156 -25 c23 -10 45 -23 49 -30 4 -6 -12 -2 -36 10 -24 13 -61 28
-83 36 -40 13 -40 13 -6 8 19 -3 54 -14 76 -24z m-273 6 c54 -8 102 -17 105
-21 10 -10 -112 4 -178 20 -73 18 -47 18 73 1z m456 -69 c22 -35 45 -120 30
-111 -5 3 -9 13 -9 22 0 9 -11 41 -25 70 -27 59 -26 67 4 19z m-372 -3 c-3 -3
-12 -4 -19 -1 -8 3 -5 6 6 6 11 1 17 -2 13 -5z m83 -15 c11 -7 4 -8 -25 -3
-50 8 -58 14 -19 14 16 0 36 -5 44 -11z m275 -125 c30 -21 5 -16 -35 7 -26 15
-29 18 -10 13 14 -4 34 -13 45 -20z m35 -50 c0 -2 -9 0 -20 6 -11 6 -20 13
-20 16 0 2 9 0 20 -6 11 -6 20 -13 20 -16z m29 -63 c-2 -6 -12 4 -22 22 l-18
32 21 -21 c13 -12 21 -27 19 -33z m-579 -155 c0 -2 -8 -10 -17 -17 -16 -13
-17 -12 -4 4 13 16 21 21 21 13z m-135 -143 c-22 -41 -24 -54 -16 -93 7 -37 9
-39 10 -15 1 21 4 26 10 17 10 -17 21 -17 31 -2 4 6 10 -13 13 -43 5 -40 3
-63 -8 -83 -15 -29 -15 -28 -15 29 0 43 -3 57 -12 54 -8 -2 -13 -21 -13 -44 0
-23 -4 -39 -9 -36 -5 4 -6 -10 -3 -33 4 -27 3 -34 -3 -24 -5 8 -10 36 -10 63
0 26 -4 47 -9 47 -5 0 -12 8 -14 18 -2 9 -3 1 -1 -18 2 -19 0 -60 -5 -90 -6
-40 -9 -46 -10 -22 0 19 -5 31 -11 27 -6 -4 -10 12 -10 42 0 35 3 44 10 33 7
-11 10 -7 10 17 0 17 5 35 10 38 6 4 8 10 5 15 -9 14 55 150 71 150 2 0 -8
-21 -21 -47z m425 -383 c22 -42 24 -56 25 -191 0 -170 2 -166 -129 -306 -67
-72 -201 -183 -221 -183 -3 0 8 19 26 43 31 40 30 40 -26 -13 -32 -30 -54 -48
-50 -40 5 8 -4 4 -18 -9 l-27 -25 -30 22 c-39 29 -49 28 -20 -3 l23 -24 -53
19 c-62 23 -133 67 -126 79 3 5 -3 16 -14 26 -29 26 -25 32 28 40 62 9 111 30
145 62 15 15 34 28 43 29 9 2 28 13 43 27 14 13 36 32 47 43 66 59 115 199
120 342 3 68 5 76 39 113 19 22 33 44 30 48 -2 5 3 15 13 22 15 13 16 12 3 -3
-19 -26 -8 -22 15 4 10 12 13 18 7 14 -27 -15 -11 11 24 41 l38 31 10 -81 c7
-52 19 -98 35 -127z m-536 143 c-4 -13 -3 -14 3 -5 7 9 12 6 21 -13 7 -14 12
-31 12 -38 0 -7 18 -50 40 -97 43 -92 50 -144 24 -195 -8 -16 -12 -21 -8 -10
17 56 14 121 -6 160 -11 22 -17 31 -14 20 12 -36 16 -123 6 -129 -8 -5 -22 91
-24 162 0 12 -4 22 -8 22 -4 0 -11 12 -14 26 -4 15 -10 23 -14 20 -3 -4 -12 8
-19 26 l-13 33 5 -32 c2 -18 2 -33 0 -33 -2 0 -9 15 -14 33 -6 20 -10 25 -10
12 -1 -11 15 -64 34 -118 30 -83 35 -110 34 -180 -1 -45 -4 -93 -9 -107 -4
-14 -5 18 -3 70 6 122 -11 181 -20 68 -4 -54 -16 -103 -42 -170 -38 -96 -62
-137 -45 -78 5 19 8 35 6 37 -4 4 -26 -47 -37 -87 -6 -24 -7 -24 -8 5 0 17 20
77 44 134 25 57 45 111 46 120 0 12 2 11 8 -4 7 -16 10 -12 15 22 14 78 9 146
-13 193 -12 25 -20 38 -17 29 2 -9 7 -38 10 -65 6 -45 5 -43 -14 21 l-20 70
21 68 c20 62 23 66 35 48 8 -11 11 -28 8 -38z m-584 -19 c24 -23 24 -24 2 -19
-30 5 -28 -4 8 -43 27 -30 35 -50 31 -75 -1 -5 12 -36 28 -68 16 -33 25 -56
19 -53 -5 3 -27 41 -47 83 -47 96 -81 151 -81 131 0 -9 7 -26 16 -38 8 -12 17
-37 19 -55 3 -27 -1 -23 -27 28 -37 73 -37 73 -49 55 -7 -12 -10 -11 -15 8 -4
12 -10 22 -15 22 -5 0 -9 -10 -10 -22 -1 -21 -2 -20 -14 7 -9 19 -14 24 -15
13 0 -10 -6 -18 -14 -18 -28 0 -22 35 9 57 40 30 118 23 155 -13z m657 -1 c-3
-10 -5 -4 -5 12 0 17 2 24 5 18 2 -7 2 -21 0 -30z m-844 9 c-10 -10 -20 -17
-22 -16 -6 5 20 34 30 34 5 0 1 -8 -8 -18z m703 -9 c-3 -16 -7 -58 -8 -95 -1
-38 -5 -68 -8 -68 -3 0 -14 14 -24 31 -21 35 -27 33 -28 -10 -1 -26 -3 -29
-16 -19 -13 11 -14 9 -8 -12 l7 -25 -15 25 c-9 14 -15 21 -16 15 0 -20 -29 33
-35 67 -5 24 -3 38 6 43 9 6 11 3 6 -8 -3 -9 -2 -27 3 -39 9 -23 9 -23 10 2
l1 25 15 -25 15 -25 -6 32 c-4 18 -2 34 4 38 7 4 11 -3 11 -17 0 -17 3 -19 9
-9 7 11 9 11 14 0 4 -8 4 4 2 26 l-5 40 14 -35 c10 -24 15 -29 15 -15 1 17 3
17 11 5 7 -11 10 -7 10 17 0 32 8 63 17 63 2 0 2 -12 -1 -27z m-447 -43 c12
-17 19 -35 16 -40 -3 -5 3 -7 13 -5 14 2 29 -10 50 -41 18 -24 37 -43 44 -42
7 2 12 -3 11 -9 -2 -7 2 -12 8 -10 6 1 14 -4 17 -12 2 -8 0 -11 -6 -7 -6 4 -9
-4 -8 -19 2 -13 -1 -22 -5 -19 -16 10 -9 -7 19 -44 15 -20 20 -32 12 -27 -17
10 -37 35 -63 79 -14 25 -16 26 -11 7 6 -22 4 -22 -25 8 -37 38 -41 19 -6 -29
14 -19 25 -35 25 -37 0 -10 -13 4 -53 58 -39 52 -44 65 -41 100 2 21 0 39 -5
39 -5 0 -13 18 -19 40 -12 48 -4 51 27 10z m784 -86 c36 -60 48 -121 29 -151
-4 -6 -7 16 -7 49 -1 32 -6 62 -11 66 -6 4 -19 22 -28 40 -21 41 -28 38 -17
-9 16 -61 22 -126 11 -109 -7 11 -10 4 -11 -30 l-2 -45 -7 55 c-9 63 -30 116
-40 99 -4 -6 -7 2 -7 18 0 15 -3 46 -7 68 -7 47 -2 37 14 -25 10 -37 14 -41
22 -27 5 10 7 37 3 60 -8 49 -4 45 58 -59z m-1086 44 c-3 -7 -5 -2 -5 12 0 14
2 19 5 13 2 -7 2 -19 0 -25z m566 0 c-3 -17 -2 -19 5 -9 8 10 11 6 17 -17 8
-37 -2 -61 -17 -41 -7 10 -8 5 -4 -16 6 -26 5 -28 -6 -10 -15 25 -18 75 -6 98
12 24 17 21 11 -5z m-36 -50 c-2 -13 -4 -5 -4 17 -1 22 1 32 4 23 2 -10 2 -28
0 -40z m452 -93 c-2 -84 -17 -92 -18 -9 -1 45 -3 97 -6 115 -3 22 0 16 10 -16
8 -27 14 -68 14 -90z m-435 -15 c5 0 3 6 -3 14 -8 9 9 5 46 -10 36 -15 69 -22
88 -19 29 5 29 5 7 -7 -17 -8 -34 -9 -62 -2 -31 9 -37 8 -33 -3 11 -27 -50 9
-108 64 -30 29 -58 51 -61 48 -3 -4 -9 -2 -13 4 -3 6 -1 11 6 11 8 0 5 8 -7
23 -10 12 15 -11 57 -50 41 -40 78 -73 83 -73z m-535 85 c16 -20 16 -20 -6 -1
-13 11 -23 26 -22 35 0 14 1 14 6 1 3 -8 13 -24 22 -35z m136 19 c18 -13 16
-14 -20 -15 -38 -1 -38 -2 13 -10 67 -11 92 -24 92 -48 0 -24 -29 -36 -36 -16
-4 10 -20 15 -43 15 -46 0 -67 16 -74 56 -6 29 -4 32 21 32 15 0 36 -7 47 -14z
m40 -4 c3 -5 1 -10 -4 -10 -6 0 -11 5 -11 10 0 6 2 10 4 10 3 0 8 -4 11 -10z
m844 -115 c0 -11 -6 -2 -14 20 -8 22 -14 45 -14 50 1 18 28 -49 28 -70z m-534
9 l28 -36 -27 17 c-14 10 -26 24 -26 32 0 8 -5 11 -12 7 -7 -4 -8 -3 -4 4 10
17 10 16 41 -24z m264 -49 c0 -27 -6 -66 -13 -85 l-13 -35 2 55 c2 30 4 78 5
105 2 66 19 31 19 -40z m-659 -71 l-6 -49 -6 70 c-4 39 -9 84 -13 100 -3 17 2
7 13 -21 13 -37 16 -65 12 -100z m50 55 c5 9 11 -4 17 -40 l10 -54 10 45 c11
44 11 44 12 10 1 -43 -28 -122 -42 -113 -6 4 -8 0 -4 -11 4 -10 3 -15 -3 -11
-6 4 -20 -16 -32 -44 -11 -29 -23 -49 -26 -47 -8 8 57 138 66 132 11 -7 5 75
-6 83 -10 8 -32 59 -31 74 0 7 5 1 10 -13 8 -19 12 -21 19 -11z m150 -69 c0
-8 -9 -2 -20 15 -11 17 -27 41 -37 55 -9 14 0 7 20 -15 20 -22 37 -47 37 -55z
m42 23 c18 -40 18 -50 7 -118 -12 -71 -9 -108 15 -180 7 -21 -15 22 -32 65 -9
21 -11 13 -10 -45 0 -38 7 -82 14 -97 12 -23 12 -26 -3 -24 -9 2 -18 11 -19
22 -2 10 -7 44 -12 74 l-10 55 -2 -45 -3 -45 -7 50 c-5 38 -8 43 -10 20 l-2
-30 -8 30 -7 30 -7 -37 c-5 -21 -5 -50 -2 -65 5 -24 5 -25 -5 -9 -16 26 -3
103 24 146 31 47 45 85 18 50 -10 -14 -31 -38 -45 -53 -14 -15 -26 -33 -26
-38 0 -6 -4 -8 -9 -5 -5 4 -12 0 -14 -6 -3 -7 -6 -4 -7 7 l-1 20 -9 -20 c-5
-11 -9 -38 -11 -60 l-2 -40 -7 45 c-10 58 2 102 46 170 31 47 36 45 17 -7 -10
-25 7 -12 32 24 14 21 25 31 25 23 0 -13 2 -13 11 0 9 12 10 10 6 -8 -8 -36 6
-16 26 36 15 41 16 42 11 12 -3 -19 -7 -48 -9 -65 -2 -16 -11 -47 -20 -69 -26
-61 -11 -52 18 12 40 89 43 125 12 184 -14 27 -21 47 -14 43 6 -4 20 -27 31
-52z m655 -16 c-13 -28 -16 -17 -9 33 6 43 6 43 12 15 4 -16 2 -38 -3 -48z
m25 51 c-3 -14 -2 -19 6 -14 15 9 15 5 -2 -35 l-14 -33 0 52 c-1 29 3 52 8 52
4 0 6 -10 2 -22z m-961 -25 c-12 -20 -14 -14 -5 12 4 9 9 14 11 11 3 -2 0 -13
-6 -23z m589 0 c-6 -10 -22 -36 -35 -58 -14 -22 -25 -35 -25 -29 0 11 59 104
66 104 3 0 0 -8 -6 -17z m440 -24 c-5 -26 -18 -51 -36 -68 l-28 -26 23 27 c22
26 28 42 30 91 1 9 5 17 10 17 4 0 5 -19 1 -41z m-990 -140 c-24 -52 -27 -162
-5 -215 8 -19 10 -32 6 -29 -16 10 -41 98 -41 146 0 26 9 68 21 95 12 26 24
77 28 113 l6 66 3 -67 c2 -52 -2 -77 -18 -109z m609 95 c-50 -137 -53 -171
-19 -233 11 -22 11 -22 -19 -7 -36 19 -46 36 -56 96 -9 55 1 49 18 -11 l13
-44 0 50 c0 53 21 128 33 121 4 -3 16 18 25 45 10 27 20 48 23 46 2 -3 -6 -31
-18 -63z m-669 -23 c-11 -33 -20 -67 -20 -76 0 -8 -4 -15 -10 -15 -5 0 -10 9
-10 19 0 22 51 144 57 137 2 -2 -5 -31 -17 -65z m1379 -34 c0 -43 2 -81 5 -85
3 -3 6 6 6 19 0 40 20 100 31 93 7 -4 9 -59 6 -147 -3 -139 -4 -144 -41 -222
-41 -89 -96 -179 -104 -171 -3 3 6 23 20 44 47 70 90 165 53 116 -19 -25 -19
-15 0 29 24 58 16 67 -11 13 -24 -45 -27 -47 -42 -32 -15 15 -15 18 2 49 l19
32 -39 -36 c-55 -52 -91 -49 -46 4 26 30 -3 18 -34 -14 -57 -60 -68 -52 -14
10 30 35 70 81 89 104 l34 42 -42 -43 c-23 -24 -46 -40 -52 -36 -6 3 -27 -9
-47 -28 -81 -74 -93 -78 -27 -8 l70 73 -75 -66 c-41 -37 -79 -67 -85 -67 -6 0
-29 -13 -51 -30 -21 -16 -46 -30 -54 -30 -8 0 17 21 55 47 83 55 255 225 309
304 22 34 40 74 43 99 9 65 22 26 22 -63z m-481 -19 c1 7 7 10 12 7 6 -3 10
-1 10 6 0 7 2 10 5 7 11 -11 -8 -39 -36 -54 l-29 -15 1 43 c1 40 2 41 9 13 6
-25 8 -20 10 30 l3 60 7 -55 c4 -30 7 -49 8 -42z m-858 57 c1 11 4 15 6 8 8
-20 -16 -98 -26 -83 -12 19 -24 -70 -17 -127 3 -28 1 -40 -4 -32 -14 22 -10
107 8 187 14 59 19 69 24 51 6 -21 7 -21 9 -4z m375 -38 c1 -18 6 -41 10 -52
13 -35 -24 19 -41 61 -13 30 -13 38 -2 45 16 10 29 -11 33 -54z m422 -86 c-7
-9 0 -7 18 5 16 10 32 18 35 16 3 -2 20 9 38 24 28 22 33 23 30 9 -3 -20 -53
-53 -80 -54 -10 -1 -27 -10 -38 -21 -20 -20 -20 -20 -16 38 2 31 5 75 6 97 2
32 4 26 11 -30 5 -49 4 -74 -4 -84z m100 112 c-3 -10 -5 -4 -5 12 0 17 2 24 5
18 2 -7 2 -21 0 -30z m-410 -15 c-3 -8 -6 -5 -6 6 -1 11 2 17 5 13 3 -3 4 -12
1 -19z m-160 -9 c-3 -12 -1 -32 4 -46 6 -17 6 -22 -3 -17 -8 5 -9 -5 -4 -37 4
-29 3 -39 -3 -29 -7 10 -11 2 -13 -30 -2 -25 -4 6 -4 68 -1 93 1 112 14 112
10 0 13 -7 9 -21z m-40 -36 c-3 -10 -5 -4 -5 12 0 17 2 24 5 18 2 -7 2 -21 0
-30z m72 -28 c0 -5 -6 1 -14 15 -8 14 -14 30 -14 35 0 6 6 -1 14 -15 8 -14 14
-29 14 -35z m67 -55 l3 -45 -8 46 c-5 26 -14 56 -20 67 -6 11 -11 27 -10 34 2
28 32 -60 35 -102z m63 55 c0 -5 -6 1 -14 15 -8 14 -14 30 -14 35 0 6 6 -1 14
-15 8 -14 14 -29 14 -35z m25 33 c11 -41 7 -54 -9 -32 -16 21 -20 54 -6 54 5
0 11 -10 15 -22z m-55 -66 c1 -39 -21 -112 -33 -112 -3 0 2 17 11 37 11 27 13
55 9 98 -3 39 -2 53 4 40 5 -11 9 -39 9 -63z m-379 44 c0 -1 -8 -23 -19 -51
-14 -37 -20 -44 -24 -30 -3 13 -5 9 -6 -12 0 -18 -5 -33 -11 -33 -13 0 -13 10
1 48 6 18 15 30 19 27 10 -6 24 31 16 43 -3 5 1 9 9 9 8 0 15 -1 15 -1z m671
-51 c5 4 9 -10 9 -29 0 -37 -20 -56 -57 -56 -17 1 -17 1 -1 14 12 8 14 16 7
23 -5 5 -7 18 -3 28 7 17 8 17 21 -1 13 -17 14 -15 10 21 -2 22 -2 30 0 17 2
-12 9 -20 14 -17z m-404 -22 c-3 -10 -5 -4 -5 12 0 17 2 24 5 18 2 -7 2 -21 0
-30z m133 -85 c-12 -27 -28 -48 -41 -51 -17 -5 -18 -3 -7 11 11 14 10 15 -7 8
-16 -6 -14 -1 9 23 16 17 33 28 37 25 5 -3 12 14 16 38 6 32 8 37 11 18 1 -14
-6 -46 -18 -72z m54 53 c3 -5 -1 -14 -8 -20 -12 -10 -13 -8 -9 8 6 23 9 25 17
12z m101 -120 c-7 -6 -75 60 -75 73 0 6 18 -7 40 -29 22 -21 37 -41 35 -44z
m1060 -48 c61 -38 120 -75 133 -82 12 -6 22 -16 22 -21 0 -15 -44 -7 -57 11
-13 18 -116 89 -145 101 -10 4 -20 3 -23 -2 -9 -15 -25 -12 -25 4 0 7 -6 19
-14 25 -11 9 -13 4 -11 -31 1 -24 1 -33 -2 -21 -2 12 -11 27 -19 34 -13 11
-14 8 -9 -17 l6 -29 -16 28 c-9 15 -17 49 -19 77 l-3 49 36 -28 c20 -15 86
-59 146 -98z m-1375 85 c0 -15 -2 -28 -4 -28 -2 0 -8 13 -14 28 -8 23 -7 29 4
29 9 0 14 -11 14 -29z m270 -19 c30 -28 90 -72 134 -97 43 -25 74 -48 68 -50
-6 -2 -26 5 -44 14 -18 10 -58 19 -88 20 -62 2 -88 7 -122 25 -20 11 -21 10
-11 -2 10 -12 8 -15 -7 -15 -10 0 -17 3 -15 6 2 3 -5 6 -15 6 -14 0 -16 -3 -8
-13 19 -23 -34 -15 -61 10 l-25 22 24 -35 24 -35 -28 25 c-38 34 -51 59 -37
73 7 7 15 6 26 -3 13 -11 14 -10 9 4 -4 10 -1 16 8 16 8 0 32 13 54 29 37 28
40 29 58 13 18 -16 18 -16 7 5 -24 47 -17 44 49 -18z m590 18 c0 -2 -19 -21
-42 -42 l-43 -40 40 43 c36 39 45 47 45 39z m-980 -49 c15 -21 17 -28 6 -19
-16 13 -41 51 -33 51 2 0 14 -15 27 -32z m-177 -68 c-54 -25 -61 -31 -56 -51
4 -15 3 -20 -5 -15 -15 9 -15 13 8 -63 11 -36 18 -67 16 -68 -2 -2 -16 30 -31
72 -15 42 -32 78 -36 81 -5 3 -2 -14 6 -37 9 -23 13 -44 11 -46 -2 -3 -10 12
-17 31 -7 20 -18 36 -24 36 -5 0 -38 -10 -73 -22 -54 -19 -61 -25 -57 -42 6
-20 6 -20 -6 -1 -12 19 -12 19 -20 0 -7 -18 -8 -18 -8 -2 -1 16 -3 16 -31 2
-23 -12 -30 -13 -30 -3 0 8 62 35 153 67 83 30 170 62 192 72 22 10 47 18 55
18 8 0 -13 -13 -47 -29z m1235 -24 c4 -18 3 -19 -13 -3 -17 18 -49 15 -90 -6
-11 -6 -28 -10 -38 -8 -10 1 -35 -10 -55 -25 -24 -19 -32 -21 -22 -9 15 19 15
19 -14 1 -16 -10 -25 -13 -21 -7 5 8 -1 10 -19 5 -14 -3 -26 -2 -26 2 0 5 46
23 103 41 118 37 189 40 195 9z m97 -77 c-5 -47 -10 -67 -16 -58 -12 19 -11
56 2 102 16 58 22 38 14 -44z m-633 49 l53 -11 -39 -9 c-21 -4 -44 -4 -50 0
-15 12 -203 16 -209 5 -3 -5 -2 -15 3 -23 13 -21 1 -43 -16 -29 -17 14 -18 51
-2 67 16 16 189 16 260 0z m121 -10 c-22 -11 -28 -25 -23 -58 1 -12 -2 -12
-16 2 -26 26 -5 68 33 67 27 0 28 -1 6 -11z m95 -23 l3 -30 -16 23 c-9 12 -23
22 -31 22 -8 0 -14 5 -14 11 0 6 12 9 28 7 22 -2 28 -9 30 -33z m7 -53 c-15
-16 -16 -15 -4 12 7 15 15 23 17 16 3 -7 -3 -19 -13 -28z m362 16 c-3 -8 -6
-5 -6 6 -1 11 2 17 5 13 3 -3 4 -12 1 -19z m-131 -14 c-4 -9 -9 -15 -11 -12
-3 3 -3 13 1 22 4 9 9 15 11 12 3 -3 3 -13 -1 -22z m-316 -29 c0 -5 -5 -3 -10
5 -5 8 -10 20 -10 25 0 6 5 3 10 -5 5 -8 10 -19 10 -25z m-693 3 c-3 -8 -6 -5
-6 6 -1 11 2 17 5 13 3 -3 4 -12 1 -19z m270 -130 c-2 -24 -4 -5 -4 42 0 47 2
66 4 43 2 -24 2 -62 0 -85z m48 -116 c10 -51 19 -91 22 -88 3 2 0 37 -7 76 -7
39 -9 74 -6 77 3 4 6 -5 6 -18 0 -14 4 -29 9 -34 5 -6 11 -19 14 -30 3 -13 5
-7 7 15 2 33 3 33 10 10 l8 -25 2 25 2 25 8 -25 c7 -21 8 -18 10 20 2 29 7 5
14 -67 14 -131 30 -165 22 -48 -3 52 -2 69 3 50 8 -27 9 -26 11 20 1 36 4 45
9 30 8 -19 9 -18 13 5 3 14 7 -4 8 -40 3 -60 3 -62 10 -25 l7 40 2 -35 3 -35
14 40 14 40 -4 -45 c-2 -25 0 -58 3 -75 6 -24 8 -16 14 40 3 39 13 90 22 115
l15 45 -7 -55 c-8 -63 -8 -152 -1 -365 3 -82 3 -124 1 -92 -2 32 -8 55 -13 52
-5 -3 -13 18 -19 47 -10 51 -10 49 -6 -32 l3 -85 -14 70 -13 70 3 -70 c3 -64
-10 -68 -15 -5 -1 20 -3 18 -8 -10 l-7 -35 -9 50 c-7 41 -10 46 -15 25 -5 -20
-9 -13 -22 40 -10 39 -17 55 -18 40 l-2 -25 -9 25 c-7 20 -8 16 -5 -20 1 -25
1 -37 -1 -27 -3 9 -9 15 -14 11 -6 -3 -7 5 -4 23 5 24 5 25 -5 10 -9 -15 -8
-33 4 -84 9 -36 15 -67 13 -70 -5 -5 -41 124 -61 223 -24 114 -56 345 -55 394
1 37 3 33 10 -25 4 -38 15 -112 24 -163z m1072 206 c-3 -8 -6 -5 -6 6 -1 11 2
17 5 13 3 -3 4 -12 1 -19z m-260 -35 c-3 -10 -5 -2 -5 17 0 19 2 27 5 18 2
-10 2 -26 0 -35z m-1308 -62 c17 -41 30 -76 27 -78 -4 -4 -66 139 -66 153 0
14 8 -1 39 -75z m1558 37 c-3 -7 -5 -2 -5 12 0 14 2 19 5 13 2 -7 2 -19 0 -25z
m-680 16 c-3 -3 -12 -4 -19 -1 -8 3 -5 6 6 6 11 1 17 -2 13 -5z m241 -27 c2
-10 8 -14 15 -10 7 3 3 -3 -7 -15 -11 -12 -27 -22 -36 -22 -17 0 -74 53 -66
61 3 2 24 4 48 4 33 0 44 -4 46 -18z m-468 8 c0 -2 -15 -12 -32 -20 l-33 -16
25 20 c24 20 40 26 40 16z m69 -33 c-7 -9 0 -6 16 8 l29 25 -23 -32 c-24 -36
-50 -41 -90 -19 l-24 14 24 8 c13 4 30 9 38 10 7 2 19 8 25 14 16 16 21 -7 5
-28z m62 -94 c-12 -113 -8 -165 4 -64 4 31 11 53 16 50 5 -3 9 6 9 19 0 13 9
34 20 47 l20 23 1 -29 c0 -25 2 -26 9 -9 7 17 9 17 9 3 1 -25 21 -23 21 2 0
11 5 20 10 20 6 0 11 12 11 28 2 26 2 26 6 2 3 -14 9 -29 14 -34 5 -6 10 -33
10 -60 l1 -51 9 53 c5 30 14 61 20 70 8 13 8 11 2 -8 -4 -14 -7 -145 -5 -291
2 -191 0 -269 -8 -274 -8 -5 -9 22 -4 103 4 73 3 115 -4 128 -9 15 -12 -1 -13
-76 -2 -85 -3 -89 -9 -40 l-7 55 -3 -55 c-2 -48 -3 -51 -10 -25 -8 29 -8 29
-10 -10 l-3 -40 -7 50 c-4 32 -8 41 -10 25 -2 -14 -6 4 -10 40 l-7 65 -2 -70
c-2 -50 -5 -64 -11 -50 -6 15 -9 16 -11 5 -1 -8 -5 12 -9 45 l-7 60 -1 -52
c-2 -64 -21 -82 -23 -21 l-2 43 -7 -40 c-6 -35 -7 -37 -13 -15 -7 29 -20 207
-20 265 1 47 11 165 20 215 12 74 15 3 4 -102z m488 100 c-5 -71 4 -82 16 -23
35 165 -3 -140 -47 -377 -12 -65 -24 -118 -28 -118 -3 0 2 57 12 128 10 70 16
134 14 142 -2 8 -4 2 -5 -13 0 -16 -5 -26 -9 -23 -5 3 -7 -9 -6 -27 2 -20 1
-25 -3 -12 -5 14 -11 0 -19 -45 l-13 -65 4 60 c2 33 1 52 -1 43 -9 -32 -20
-19 -17 20 2 28 0 26 -7 -13 -6 -27 -15 -58 -20 -67 -6 -10 -11 -26 -11 -35
-1 -10 -5 -2 -8 17 -7 35 -7 35 -15 -17 -10 -66 -26 -69 -26 -6 0 75 -11 42
-20 -59 l-8 -93 1 88 c0 48 -3 90 -7 94 -3 3 -7 20 -7 37 -1 17 -7 -21 -14
-84 -10 -94 -13 -105 -15 -60 l-2 55 -9 -60 c-15 -106 -18 -93 -13 55 4 91 2
168 -6 205 -7 41 -8 78 -2 115 8 47 10 50 12 20 l2 -35 11 38 c7 22 15 35 20
31 4 -4 7 1 8 12 0 15 2 14 11 -6 10 -24 10 -24 19 -5 6 13 7 2 4 -35 -3 -30
-2 -48 1 -40 3 8 8 22 11 30 3 8 5 24 5 35 -1 11 1 14 4 8 8 -18 31 6 40 41 6
27 6 27 21 6 13 -19 16 -19 27 -5 15 21 58 14 66 -11 5 -13 9 -3 15 34 8 57
18 71 14 20z m-812 -95 c-3 -10 -5 -2 -5 17 0 19 2 27 5 18 2 -10 2 -26 0 -35z
m1164 -6 c-10 -9 -11 -8 -5 6 3 10 9 15 12 12 3 -3 0 -11 -7 -18z m-454 -289
c-3 -8 -6 -5 -6 6 -1 11 2 17 5 13 3 -3 4 -12 1 -19z m-570 -100 c-3 -8 -6 -5
-6 6 -1 11 2 17 5 13 3 -3 4 -12 1 -19z m80 -80 c-3 -8 -6 -5 -6 6 -1 11 2 17
5 13 3 -3 4 -12 1 -19z"/>
<path d="M2206 3775 c-11 -8 -17 -17 -14 -20 2 -3 13 4 23 15 21 23 18 25 -9
5z"/>
<path d="M1951 3409 c-56 -17 -28 -20 35 -5 39 9 49 14 29 14 -16 0 -45 -4
-64 -9z"/>
<path d="M2375 3371 c-3 -6 -3 -11 2 -11 4 0 2 -4 -6 -9 -8 -5 -9 -11 -3 -15
6 -3 14 3 17 15 8 23 1 36 -10 20z"/>
<path d="M1975 3319 c-13 -6 -4 -7 30 -3 28 4 52 8 54 10 9 8 -65 2 -84 -7z"/>
<path d="M2365 3300 c3 -5 8 -10 11 -10 2 0 4 5 4 10 0 6 -5 10 -11 10 -5 0
-7 -4 -4 -10z"/>
<path d="M2365 3270 c3 -5 8 -10 11 -10 2 0 4 5 4 10 0 6 -5 10 -11 10 -5 0
-7 -4 -4 -10z"/>
<path d="M2397 3249 c7 -7 15 -10 18 -7 3 3 -2 9 -12 12 -14 6 -15 5 -6 -5z"/>
<path d="M1995 3219 c-16 -5 -44 -8 -60 -7 -17 1 -36 -1 -43 -6 -7 -4 -12 -2
-12 4 0 6 -4 8 -10 5 -17 -10 -11 -61 9 -79 12 -11 31 -16 48 -14 24 3 28 0
25 -21 -3 -16 0 -21 9 -16 7 5 10 4 6 -1 -3 -5 -1 -30 4 -55 8 -35 14 -45 30
-46 20 -2 20 -1 5 16 -16 18 -15 18 27 14 32 -4 58 1 92 16 45 20 47 23 33 38
-9 8 -38 22 -65 29 -47 14 -47 14 -9 11 32 -3 35 -1 21 9 -11 8 -36 11 -73 7
-67 -6 -62 8 8 25 41 10 50 9 99 -15 52 -25 157 -45 136 -26 -50 46 -133 97
-177 109 -60 16 -62 16 -103 3z m28 -16 c-7 -2 -19 -2 -25 0 -7 3 -2 5 12 5
14 0 19 -2 13 -5z m108 -13 c20 -6 43 -18 50 -27 13 -15 12 -15 -11 -2 -14 7
-41 19 -60 25 -44 15 -28 17 21 4z m-203 -7 c-10 -2 -18 -8 -18 -12 0 -4 -7
-8 -15 -8 -11 0 -12 4 -4 14 6 7 21 12 33 12 17 -1 17 -2 4 -6z m59 -135 c-3
-7 -5 -2 -5 12 0 14 2 19 5 13 2 -7 2 -19 0 -25z m152 16 c10 -9 -31 -34 -57
-34 -18 0 -23 4 -18 16 3 9 6 19 6 24 0 8 60 4 69 -6z"/>
<path d="M2888 3103 c7 -3 16 -2 19 1 4 3 -2 6 -13 5 -11 0 -14 -3 -6 -6z"/>
<path d="M2775 3060 c-3 -5 -1 -10 4 -10 6 0 11 5 11 10 0 6 -2 10 -4 10 -3 0
-8 -4 -11 -10z"/>
<path d="M3131 3024 c0 -11 3 -14 6 -6 3 7 2 16 -1 19 -3 4 -6 -2 -5 -13z"/>
<path d="M1950 3015 c0 -11 5 -27 10 -35 8 -12 10 -12 10 5 0 11 -5 27 -10 35
-8 12 -10 12 -10 -5z"/>
<path d="M2854 2998 c-29 -20 -57 -48 -67 -70 -19 -40 -41 -163 -33 -185 3 -8
22 -13 48 -12 35 1 38 2 18 8 -24 7 -24 8 10 15 22 5 29 10 20 13 -8 3 -25 10
-37 14 l-23 8 29 43 c16 24 27 46 25 50 -3 5 -3 8 0 8 3 0 14 -17 25 -37 16
-29 20 -33 21 -17 0 12 -11 37 -24 57 -14 20 -19 34 -12 31 7 -3 19 -16 26
-30 16 -30 24 -25 11 7 -5 13 -10 29 -11 34 -1 6 -7 16 -13 24 -10 11 -9 13 3
9 8 -2 23 -20 32 -39 14 -28 17 -30 18 -12 0 12 -5 34 -11 50 -8 21 -7 25 1
16 7 -6 16 -26 21 -45 l8 -33 -2 37 c-2 20 1 34 6 31 5 -3 7 -33 5 -65 -4 -52
-3 -58 9 -42 15 21 17 56 3 104 -9 32 -8 33 5 16 20 -26 19 -6 -1 22 -21 31
-53 28 -110 -10z"/>
<path d="M3112 2970 c0 -19 2 -27 5 -17 2 9 2 25 0 35 -3 9 -5 1 -5 -18z"/>
<path d="M1832 2965 c-16 -35 -15 -50 5 -66 15 -13 15 -12 3 8 -11 17 -12 27
-2 49 7 14 11 28 9 30 -2 2 -9 -7 -15 -21z"/>
<path d="M2720 2971 c0 -6 4 -13 10 -16 6 -3 7 1 4 9 -7 18 -14 21 -14 7z"/>
<path d="M3189 2954 c-5 -15 -8 -29 -5 -31 2 -2 8 10 14 26 13 38 5 41 -9 5z"/>
<path d="M3011 2904 c0 -11 3 -14 6 -6 3 7 2 16 -1 19 -3 4 -6 -2 -5 -13z"/>
<path d="M3131 2874 c0 -11 3 -14 6 -6 3 7 2 16 -1 19 -3 4 -6 -2 -5 -13z"/>
<path d="M2849 2828 c-3 -22 -1 -34 4 -29 5 5 7 21 5 37 -3 27 -4 26 -9 -8z"/>
<path d="M2364 2828 l-19 -23 23 19 c21 18 27 26 19 26 -2 0 -12 -10 -23 -22z"/>
<path d="M1776 2771 c-3 -5 15 -16 41 -25 57 -19 63 -20 63 -3 0 27 -90 50
-104 28z"/>
<path d="M2128 2753 c7 -3 16 -2 19 1 4 3 -2 6 -13 5 -11 0 -14 -3 -6 -6z"/>
<path d="M3105 2749 c-4 -6 -5 -12 -2 -15 2 -3 7 2 10 11 7 17 1 20 -8 4z"/>
<path d="M2770 2700 c-34 -34 -21 -90 20 -90 9 0 24 8 33 18 22 24 22 39 1 18
-32 -32 -75 -5 -54 33 13 26 22 28 13 4 -6 -16 -3 -15 17 2 13 11 21 15 17 9
-3 -6 0 -11 8 -11 21 0 18 14 -4 27 -26 13 -28 13 -51 -10z"/>
<path d="M2805 2660 c-3 -5 -1 -10 4 -10 6 0 11 5 11 10 0 6 -2 10 -4 10 -3 0
-8 -4 -11 -10z"/>
<path d="M3051 2654 c0 -11 3 -14 6 -6 3 7 2 16 -1 19 -3 4 -6 -2 -5 -13z"/>
<path d="M3051 2604 c0 -11 3 -14 6 -6 3 7 2 16 -1 19 -3 4 -6 -2 -5 -13z"/>
<path d="M3012 2320 c0 -14 2 -19 5 -12 2 6 2 18 0 25 -3 6 -5 1 -5 -13z"/>
<path d="M2985 2200 c-4 -17 -5 -34 -2 -36 3 -3 8 9 12 26 4 17 5 34 2 36 -3
3 -8 -9 -12 -26z"/>
<path d="M2657 2078 c-4 -14 -9 -34 -13 -45 -3 -10 2 -5 11 10 9 16 15 36 13
45 -3 12 -6 9 -11 -10z"/>
<path d="M2448 2275 c-3 -11 -9 -29 -13 -40 -3 -11 1 -7 10 8 9 16 15 33 12
40 -2 6 -6 3 -9 -8z"/>
<path d="M1766 2673 c-6 -14 -5 -15 5 -6 7 7 10 15 7 18 -3 3 -9 -2 -12 -12z"/>
<path d="M2010 2520 c11 -22 23 -40 25 -40 3 0 -4 18 -15 40 -11 22 -23 40
-25 40 -3 0 4 -18 15 -40z"/>
<path d="M2698 2522 c-4 -12 -2 -20 3 -16 5 3 9 0 9 -7 0 -7 2 -10 5 -7 3 3 2
16 -3 28 l-9 24 -5 -22z"/>
<path d="M1901 2143 c-23 -33 -27 -42 -11 -28 20 18 56 75 47 75 -2 0 -18 -21
-36 -47z"/>
<path d="M2100 2215 c0 -5 5 -17 10 -25 5 -8 10 -10 10 -5 0 6 -5 17 -10 25
-5 8 -10 11 -10 5z"/>
<path d="M2360 1876 c0 -9 70 -59 75 -54 3 3 -13 17 -35 32 -22 14 -40 24 -40
22z"/>
<path d="M2377 1829 c7 -7 15 -10 18 -7 3 3 -2 9 -12 12 -14 6 -15 5 -6 -5z"/>
<path d="M2281 1154 c0 -11 3 -14 6 -6 3 7 2 16 -1 19 -3 4 -6 -2 -5 -13z"/>
<path d="M2586 1409 c-28 -22 -33 -48 -16 -80 12 -22 43 -25 57 -6 25 30 20
107 -6 107 -5 0 -20 -9 -35 -21z m31 -36 c-4 -31 -36 -40 -45 -13 -5 13 -3 13
13 0 17 -14 17 -14 7 6 -12 23 -7 34 15 34 9 0 12 -9 10 -27z"/>
<path d="M2625 1310 c-4 -7 -18 -10 -31 -7 -13 2 -24 1 -24 -3 0 -11 30 -21
41 -14 5 3 9 -1 10 -8 0 -7 5 -2 10 11 10 25 6 40 -6 21z"/>
<path d="M1231 3669 c-7 -12 -10 -23 -8 -26 3 -3 11 5 17 17 15 28 8 35 -9 9z"/>
<path d="M3760 3616 c0 -3 9 -10 20 -16 11 -6 20 -8 20 -6 0 3 -9 10 -20 16
-11 6 -20 8 -20 6z"/>
<path d="M4083 2065 c0 -33 2 -45 4 -27 2 18 2 45 0 60 -2 15 -4 0 -4 -33z"/>
<path d="M923 2379 c-20 -7 -23 -15 -23 -64 0 -57 5 -63 34 -42 13 10 16 24
14 64 -3 48 -4 50 -25 42z"/>
<path d="M1231 1340 c14 -31 19 -36 19 -24 0 6 -7 19 -16 30 -14 18 -14 18 -3
-6z"/>
<path d="M1240 1154 c-41 -36 -94 -80 -117 -97 -23 -18 -43 -37 -43 -42 0 -6
28 -37 62 -70 34 -33 54 -50 44 -38 -9 12 -19 27 -20 35 -2 7 -6 20 -9 28 -17
39 -1 83 44 122 24 21 48 37 53 35 6 -2 18 5 28 15 18 18 19 18 45 1 19 -13
25 -14 18 -4 -4 8 9 2 29 -14 21 -16 45 -30 53 -31 8 -2 24 -11 36 -20 12 -10
-14 19 -58 64 -44 45 -82 82 -85 82 -3 0 -39 -30 -80 -66z"/>
<path d="M3585 1128 c-47 -47 -66 -71 -45 -57 19 13 41 24 48 25 8 2 23 11 34
21 11 10 28 17 38 15 10 -2 21 2 25 8 5 8 11 8 21 -1 8 -6 14 -8 14 -4 0 9 89
-62 112 -90 11 -14 13 -25 7 -37 -6 -10 -5 -19 1 -23 6 -4 4 -15 -6 -31 -9
-13 -13 -24 -8 -24 4 0 -3 -12 -17 -27 l-24 -26 36 26 c19 15 49 44 67 66 l31
39 -92 75 c-51 41 -103 87 -116 101 -14 14 -29 26 -35 25 -6 0 -47 -37 -91
-81z"/>
<path d="M1655 945 c22 -19 146 -83 130 -68 -5 6 -41 27 -80 47 -38 21 -61 30
-50 21z"/>
<path d="M3190 863 c-58 -30 -94 -52 -80 -48 32 10 149 69 175 89 29 23 20 19
-95 -41z"/>
<path d="M1311 854 c0 -11 3 -14 6 -6 3 7 2 16 -1 19 -3 4 -6 -2 -5 -13z"/>
<path d="M3620 749 c-127 -91 -124 -95 7 -7 60 40 94 68 81 68 -2 0 -41 -28
-88 -61z"/>
<path d="M2310 4867 c0 -7 7 -22 16 -33 15 -19 16 -19 9 1 -4 11 -8 26 -8 33
0 16 -17 16 -17 -1z"/>
<path d="M2692 4848 c-10 -30 -10 -31 3 -14 13 17 21 46 12 46 -1 0 -8 -15
-15 -32z"/>
<path d="M2233 4823 c54 -22 45 -32 -15 -17 -71 19 -148 18 -177 -2 -18 -13
-22 -24 -19 -50 3 -28 0 -35 -17 -40 -37 -10 -176 -66 -173 -70 2 -2 49 12
103 30 78 25 104 30 118 22 26 -16 21 -22 -30 -36 -87 -24 -246 -89 -391 -160
-79 -38 -146 -70 -149 -70 -2 0 -1 5 3 12 5 7 3 8 -7 3 -21 -13 -189 -156
-189 -161 0 -3 19 8 43 24 208 141 609 320 789 352 102 18 108 20 108 29 0 5
-30 9 -67 8 -87 -2 -115 12 -58 30 l40 12 -52 -6 c-52 -5 -53 -5 -53 20 0 56
82 59 248 10 48 -14 95 -28 105 -30 40 -12 13 15 -48 48 -36 18 -65 40 -65 47
0 8 -15 12 -42 11 l-43 0 38 -16z"/>
<path d="M2760 4828 c0 -7 -29 -29 -65 -47 -61 -33 -88 -60 -47 -48 9 2 56 16
104 30 166 49 248 46 248 -10 0 -25 -1 -25 -52 -20 l-53 6 40 -12 c57 -18 29
-32 -57 -30 -38 1 -68 -2 -68 -7 0 -10 20 -16 85 -25 157 -21 491 -163 748
-318 59 -36 107 -63 107 -62 0 5 -171 149 -189 160 -10 5 -12 4 -7 -3 4 -7 5
-12 3 -12 -3 0 -70 32 -149 70 -145 71 -304 136 -390 160 -52 14 -57 20 -30
36 13 8 39 3 117 -22 54 -18 101 -32 103 -30 3 4 -136 60 -173 70 -17 5 -20
12 -17 40 3 26 -1 37 -19 50 -29 20 -106 21 -177 2 -60 -15 -69 -5 -14 17 l37
16 -42 0 c-28 1 -43 -3 -43 -11z"/>
<path d="M1695 4589 c-56 -29 -68 -44 -20 -24 22 9 47 22 55 30 20 20 12 19
-35 -6z"/>
<path d="M3291 4606 c10 -9 69 -36 69 -32 0 6 -55 36 -66 36 -4 0 -5 -2 -3 -4z"/>
<path d="M1081 4111 c-28 -32 -51 -63 -51 -67 1 -9 18 11 81 89 48 59 26 43
-30 -22z"/>
<path d="M3922 4121 c41 -49 90 -88 67 -55 -7 11 -33 37 -58 59 l-45 40 36
-44z"/>
<path d="M1031 955 c0 -5 25 -37 55 -70 33 -35 43 -43 25 -20 -52 69 -80 100
-80 90z"/>
<path d="M3970 927 c-14 -12 -39 -38 -55 -57 -30 -34 -30 -34 16 5 39 34 75
75 67 75 -2 0 -14 -10 -28 -23z"/>
<path d="M1290 715 c0 -5 171 -149 189 -160 10 -5 12 -4 7 3 -4 7 -5 12 -3 12
3 0 70 -32 149 -70 145 -71 304 -136 391 -160 51 -14 56 -20 30 -36 -14 -8
-40 -3 -118 22 -54 18 -101 32 -103 30 -3 -4 136 -60 173 -70 17 -5 20 -12 17
-40 -3 -26 1 -37 19 -50 29 -20 106 -21 177 -2 60 15 69 5 15 -17 l-38 -16 43
0 c27 -1 42 3 42 12 0 6 29 28 65 46 61 33 88 60 48 48 -10 -2 -57 -16 -105
-30 -166 -49 -248 -46 -248 10 0 25 1 25 53 20 l52 -6 -40 12 c-57 18 -29 32
58 30 37 -1 67 2 67 7 0 10 -20 16 -85 25 -157 21 -491 163 -747 318 -60 36
-108 63 -108 62z"/>
<path d="M3660 664 c-234 -148 -604 -307 -765 -329 -65 -9 -85 -15 -85 -25 0
-5 30 -8 68 -7 86 2 114 -12 57 -30 l-40 -12 53 6 c51 5 52 5 52 -20 0 -56
-82 -59 -248 -10 -48 14 -95 28 -104 30 -41 12 -14 -15 47 -48 36 -18 65 -40
65 -46 0 -9 15 -13 43 -12 l42 0 -37 16 c-55 22 -46 32 14 17 71 -19 148 -18
177 2 18 13 22 24 19 50 -3 28 0 35 17 40 37 10 176 66 173 70 -2 2 -49 -12
-103 -30 -78 -25 -104 -30 -117 -22 -27 16 -22 22 30 36 86 24 245 89 390 160
79 38 146 70 149 70 2 0 1 -5 -3 -12 -12 -19 16 1 109 80 119 100 119 103 -3
26z"/>
<path d="M1640 446 c0 -5 59 -40 85 -50 18 -6 18 -5 5 8 -15 15 -90 50 -90 42z"/>
<path d="M3320 410 c-19 -11 -31 -19 -27 -20 11 0 67 29 67 35 0 7 -1 7 -40
-15z"/>
<path d="M2321 162 c-14 -27 -14 -42 1 -42 6 0 8 3 5 6 -3 4 -2 15 4 26 6 11
8 22 6 25 -3 2 -10 -4 -16 -15z"/>
<path d="M2688 165 c5 -11 12 -27 15 -35 5 -13 6 -13 6 1 1 8 -6 24 -15 35
-15 19 -15 19 -6 -1z"/>
<path d="M2406 141 c-3 -4 5 -6 17 -4 27 5 54 -22 72 -72 l12 -37 6 31 c9 41
52 85 78 78 10 -3 17 -1 13 4 -16 27 -93 -9 -94 -43 0 -7 -6 -4 -12 7 -21 39
-77 61 -92 36z"/>
</g>
</svg>
